# 3ds Max Wavefront OBJ Exporter v0.97b - (c)2007 guruware
# 创建的文件:13.07.2015 12:56:49
# UVs by headus UVLayout v2.08.03 2014/05/30 12:06:08

#
# object Box002
#

v  10.7500 38.1676 -29.7395
v  17.2500 38.1676 -29.7395
v  17.2500 24.1676 -29.7395
v  10.7500 24.1676 -29.7395
v  10.7654 14.9926 -7.2707
v  17.2500 15.0559 -7.0171
v  17.2500 18.1676 -10.7395
v  10.7500 18.1676 -10.7395
v  17.2500 28.1676 -14.7395
v  10.7500 28.1676 -14.7395
v  17.2500 36.1676 -21.7395
v  10.7500 36.1676 -21.7395
v  17.2500 15.1676 -19.7395
v  17.2500 22.1676 -23.7395
v  10.7500 6.1676 -15.7395
v  17.2500 6.1676 -15.7395
v  17.2500 0.3413 -7.0000
v  10.7500 15.1676 -19.7395
v  10.7500 22.1676 -23.7395
v  10.8645 0.0033 -7.0661
v  -17.2500 38.1676 -29.7395
v  -10.7500 38.1676 -29.7395
v  -10.7500 24.1676 -29.7395
v  -17.2500 24.1676 -29.7395
v  -17.2500 15.0559 -7.0373
v  -10.9097 15.0011 -7.7090
v  -10.7500 18.1676 -11.8288
v  -17.2500 18.1676 -10.7395
v  -10.7500 28.1676 -14.7395
v  -17.2500 28.1676 -14.7395
v  -10.7500 36.1676 -21.7395
v  -17.2500 36.1676 -21.7395
v  -10.7500 6.1676 -15.7395
v  -10.7500 15.1676 -19.7395
v  -10.7500 22.1676 -23.7395
v  -17.2500 6.1676 -15.7395
v  -17.2500 15.1676 -19.7395
v  -17.2500 22.1676 -23.7395
v  -21.0000 15.0000 -7.0000
v  -21.0000 15.0000 11.0000
v  -7.6604 16.3911 5.4671
v  -9.3969 15.6126 2.5619
v  -9.4001 15.0000 2.5528
v  -7.7011 15.0000 5.8239
v  -5.0000 16.9688 7.6234
v  -5.1079 15.0000 7.8496
v  -1.6130 15.0000 9.3741
v  -1.7365 17.2763 8.7708
v  1.7365 15.0000 9.3807
v  1.7365 17.2763 8.7708
v  5.0000 16.9688 7.6234
v  4.5670 15.0000 8.3140
v  7.5956 15.0000 6.0702
v  7.6604 16.3911 5.4671
v  9.2370 15.3063 2.5731
v  9.2358 15.2343 -6.9487
v  9.3969 21.8039 -8.4208
v  10.2450 14.3803 -1.7261
v  9.6000 22.6891 -4.1411
v  7.6604 15.0000 -9.7743
v  7.6604 20.7912 -11.3260
v  6.5084 14.8552 -11.2769
v  2.3221 14.5336 -12.9695
v  1.7365 19.9059 -14.6297
v  5.0000 20.2134 -13.4823
v  -1.7901 13.7101 -12.9695
v  -1.7365 19.9059 -14.6297
v  1.7365 13.7101 -12.9695
v  -6.1629 14.8715 -11.4386
v  -5.0000 20.2134 -13.4823
v  -2.2325 14.4181 -12.8904
v  -8.1092 20.5406 -10.8500
v  -8.0971 15.0000 -8.9740
v  -8.1231 15.0000 -8.9445
v  -9.4848 15.0000 -2.0666
v  -9.4587 15.0000 -0.6440
v  9.5937 55.0000 -13.1568
v  9.3906 54.3491 -17.4365
v  7.6541 53.3363 -20.3417
v  4.9937 52.7586 -22.4980
v  1.7302 52.4511 -23.6454
v  -1.7428 52.4511 -23.6454
v  -5.0063 52.7586 -22.4980
v  -7.6668 53.3363 -20.3417
v  -9.4032 54.1148 -17.4365
v  -9.4925 55.0000 -13.1568
v  -9.4033 55.8852 -8.5243
v  -7.6668 56.6637 -5.6191
v  -5.0063 57.2415 -3.4628
v  -1.7428 57.5489 -2.3154
v  1.7302 57.5489 -2.3154
v  4.9937 57.2414 -3.4628
v  7.6541 56.6637 -5.6191
v  9.3906 55.8852 -8.5243
v  -9.4250 15.0000 -6.1012
v  -11.0679 0.4384 -6.0111
v  10.0232 15.0000 -8.5232
v  -8.5000 -10.0000 11.0000
v  -8.5000 -10.0000 -7.0000
v  8.5000 -10.0000 -7.0000
v  8.5000 -10.0000 11.0000
v  15.0000 0.0000 11.0231
v  12.0000 -2.0000 11.0000
v  12.0000 -2.0000 -6.9769
v  10.0000 -5.0000 11.0000
v  10.0000 -5.0000 -7.0000
v  10.0000 -8.5000 11.0000
v  10.0000 -8.5000 -7.0000
v  -12.0000 -2.0000 -7.0000
v  -10.0000 -5.0000 -7.0000
v  -10.0000 -5.0000 11.0000
v  -12.0000 -2.0000 11.0000
v  -10.0000 -8.5000 -7.0000
v  -10.0000 -8.5000 11.0000
v  -21.0000 0.0000 11.0000
v  -15.0000 0.0000 11.0000
v  -17.2500 0.3413 -7.0000
v  -2.2652 0.0000 -13.3754
v  2.3221 0.0000 -12.9695
v  6.5646 0.0000 -11.4253
v  10.0232 0.0000 -8.5232
v  -9.8939 0.2234 -8.5232
v  -21.0000 0.0000 -7.0000
v  21.0000 15.0000 11.0000
v  21.0000 0.0000 11.0000
v  21.0000 0.0000 -7.0000
v  21.0000 15.0000 -7.0000
v  15.0555 0.0543 -7.0050
v  -15.0000 0.0000 -7.0000
v  -6.1681 0.0000 -11.3434
# 130 vertices

vn -0.5656 0.6500 -0.5075
vn 0.5656 0.6500 -0.5075
vn 0.5962 -0.4694 -0.6513
vn -0.5962 -0.4694 -0.6513
vn -0.3666 0.9091 0.1980
vn 0.8610 0.4592 -0.2184
vn 0.4417 0.5317 0.7226
vn -0.7609 0.3683 0.5342
vn 0.6711 0.3873 0.6322
vn -0.6711 0.3873 0.6322
vn 0.6456 0.6516 0.3982
vn -0.6456 0.6516 0.3982
vn 0.4910 -0.3935 -0.7772
vn 0.7969 -0.4672 -0.3830
vn -0.7197 -0.4162 -0.5557
vn 0.0000 -0.6446 -0.7645
vn 0.0000 -0.8321 -0.5547
vn -0.7186 -0.3141 -0.6204
vn -0.7969 -0.4672 -0.3830
vn 0.0950 -0.4596 -0.8830
vn -0.6432 0.7435 -0.1831
vn 0.6475 0.7080 0.2820
vn 0.8242 0.3048 0.4772
vn -0.7406 0.4022 0.5383
vn 0.6710 0.3767 0.6386
vn 0.6521 -0.4915 -0.5772
vn 0.7186 -0.3141 -0.6204
vn -0.3679 -0.6007 -0.7098
vn 0.0000 1.0000 -0.0000
vn 0.0001 0.9717 0.2364
vn -0.7714 0.1713 0.6129
vn -0.9521 0.0005 0.3059
vn -0.6158 0.7694 0.1697
vn -0.4514 0.8084 0.3777
vn -0.4754 0.1370 0.8690
vn -0.3075 0.7830 0.5407
vn -0.1076 0.8281 0.5501
vn -0.1975 0.2256 0.9540
vn 0.0974 0.8269 0.5538
vn 0.1731 0.2544 0.9515
vn 0.4954 0.2104 0.8428
vn 0.2686 0.8050 0.5289
vn 0.4282 0.8246 0.3696
vn 0.7894 0.2128 0.5758
vn 0.4738 0.8625 0.1776
vn 0.7504 0.6167 -0.2379
vn 0.9549 -0.0543 -0.2918
vn 0.5206 0.8538 0.0018
vn 0.9971 0.0766 -0.0026
vn 0.6698 0.5495 -0.4994
vn 0.7841 -0.1339 -0.6060
vn 0.6240 -0.1140 -0.7731
vn 0.3143 -0.2106 -0.9257
vn 0.1815 -0.2620 -0.9478
vn 0.4725 -0.2184 -0.8538
vn -0.1384 -0.1193 -0.9832
vn -0.1728 -0.2535 -0.9518
vn 0.0522 -0.1304 -0.9901
vn -0.6017 -0.1491 -0.7847
vn -0.4836 -0.2111 -0.8494
vn -0.6199 -0.3436 -0.7054
vn -0.6911 -0.1643 -0.7038
vn -0.6056 0.5872 -0.5371
vn -0.3524 0.8827 -0.3108
vn -0.0413 0.9991 0.0009
vn -0.7053 0.7088 0.0129
vn -0.0327 0.9768 -0.2119
vn -0.3336 0.9342 -0.1263
vn -0.0379 0.9742 -0.2223
vn 0.0000 0.9659 -0.2587
vn 0.0000 0.9659 -0.2588
vn 0.0000 0.9659 -0.2589
vn 0.0070 0.9740 -0.2264
vn -0.0001 0.9659 -0.2589
vn 0.0752 0.9772 -0.1986
vn 0.3594 0.9153 -0.1818
vn 0.0031 0.9731 -0.2302
vn -0.0016 0.9718 -0.2359
vn 0.0001 0.9660 -0.2587
vn 0.0289 0.9753 -0.2189
vn 0.1352 0.9743 -0.1802
vn 0.0007 1.0000 -0.0000
vn 0.4024 -0.8360 -0.3731
vn -0.0850 0.9948 0.0562
vn -0.2971 -0.7173 0.6303
vn -0.2971 -0.7173 -0.6303
vn 0.2971 -0.7173 -0.6303
vn 0.2971 -0.7173 0.6303
vn 0.5547 -0.8321 -0.0000
vn 0.7068 -0.7074 -0.0000
vn 0.7520 -0.5468 -0.3681
vn 0.9571 -0.2898 -0.0000
vn 0.6001 -0.1772 -0.7801
vn 0.8773 -0.3634 0.3136
vn 0.7173 -0.2971 -0.6303
vn -0.8321 -0.5547 -0.0000
vn -0.9571 -0.2898 -0.0000
vn -0.8679 -0.2628 0.4215
vn -0.8667 -0.3587 -0.3467
vn -0.7173 -0.2971 0.6303
vn 0.0000 0.0000 1.0000
vn -0.0022 -0.2579 -0.9662
vn -0.0173 -0.9992 0.0356
vn 0.0000 -1.0000 -0.0000
vn 0.3420 0.0000 -0.9397
vn 0.3741 0.0107 -0.9273
vn 0.6428 0.0101 -0.7660
vn 0.6167 0.0000 -0.7872
vn -0.8697 -0.0322 -0.4926
vn 0.8603 -0.0013 -0.5098
vn 0.8660 0.0000 -0.5000
vn -1.0000 0.0000 -0.0000
vn 0.0000 0.0000 -1.0000
vn -0.0008 -0.0104 0.9999
vn -0.0008 0.0018 1.0000
vn 0.0039 0.0000 1.0000
vn 1.0000 0.0000 -0.0000
vn 0.0004 0.0040 -1.0000
vn -0.0156 0.0000 -0.9999
vn 0.1831 -0.6402 -0.7461
vn 0.0234 0.2571 -0.9661
vn -0.5547 -0.8321 -0.0000
vn 0.5493 -0.8356 0.0013
vn 0.0070 -0.0077 -0.9999
vn 0.0038 -0.0095 -0.9999
vn 0.0000 0.2654 0.9641
vn 0.3420 0.2494 0.9060
vn 0.6428 0.2034 0.7386
vn 0.8660 0.1328 0.4820
vn 0.8899 0.1172 0.4409
vn 0.9991 0.0078 0.0423
vn 0.9967 0.0220 0.0780
vn 0.0005 1.0000 0.0002
vn -0.4618 -0.0055 -0.8870
vn -0.6035 0.0024 -0.7973
vn -0.6179 -0.0048 -0.7862
vn -0.3420 0.2493 0.9060
vn -0.6428 0.2032 0.7386
vn -0.8660 0.1326 0.4821
vn -0.9998 0.0049 0.0183
vn -0.9998 -0.0052 -0.0198
vn -0.9999 -0.0043 -0.0148
vn -0.9027 -0.1193 -0.4133
vn -0.8660 -0.1282 -0.4833
vn -0.9596 -0.0893 -0.2667
vn -0.6428 -0.2046 -0.7382
vn -0.6449 -0.2044 -0.7364
vn -0.3420 -0.2509 -0.9056
vn 0.0000 -0.2670 -0.9637
vn 0.3420 -0.2508 -0.9056
vn 0.6428 -0.2044 -0.7383
vn 0.9989 -0.0125 -0.0455
vn 0.9989 -0.0122 -0.0449
vn 0.8704 -0.1313 -0.4745
vn 0.2008 0.3013 -0.9321
vn -0.0366 0.3876 -0.9211
vn 0.1042 0.6871 -0.7190
vn -0.3430 0.0324 -0.9388
vn 0.0009 0.0102 -0.9999
vn 0.0084 1.0000 -0.0019
vn 0.0046 1.0000 0.0041
vn -0.0274 0.9968 0.0745
vn 0.1503 0.9731 -0.1744
vn -0.1664 0.9817 0.0928
vn -0.0100 0.9999 0.0052
vn 0.0149 0.9999 -0.0000
# 166 vertex normals

# 253 texture coords
vt 0.645375 0.088084
vt 0.618071 0.088201
vt 0.672674 0.088115
vt 0.203521 0.084746
vt 0.230868 0.085119
vt 0.258259 0.085499
vt 0.355238 0.156760
vt 0.320775 0.154062
vt 0.383129 0.155499
vt 0.437957 0.156472
vt 0.410562 0.155972
vt 0.465324 0.156813
vt 0.492674 0.157078
vt 0.524708 0.154453
vt 0.579954 0.419845
vt 0.446128 0.630938
vt 0.313244 0.776050
vt 0.154313 0.115300
vt 0.153703 0.186838
vt 0.139845 0.210411
vt 0.118760 0.227820
vt 0.092992 0.236971
vt 0.065648 0.236756
vt 0.040022 0.227215
vt 0.019205 0.209484
vt 0.020120 0.090641
vt 0.041201 0.073223
vt 0.066969 0.064066
vt 0.094317 0.064279
vt 0.119941 0.073832
vt 0.140785 0.091536
vt 0.004392 0.148591
vt 0.005811 0.114497
vt 0.005639 0.185740
vt 0.698999 0.416969
vt 0.671643 0.416970
vt 0.644310 0.417002
vt 0.726336 0.417022
vt 0.699951 0.088030
vt 0.616829 0.083545
vt 0.645091 0.076719
vt 0.670841 0.072665
vt 0.700722 0.069458
vt 0.616982 0.417094
vt 0.592470 0.090179
vt 0.581648 0.093164
vt 0.545711 0.423394
vt 0.551046 0.102053
vt 0.527487 0.108386
vt 0.518020 0.423150
vt 0.527304 0.108460
vt 0.503097 0.112299
vt 0.490433 0.422934
vt 0.470152 0.111538
vt 0.466247 0.106319
vt 0.462894 0.422674
vt 0.438670 0.105965
vt 0.435405 0.422354
vt 0.433840 0.112140
vt 0.407940 0.421927
vt 0.398416 0.110418
vt 0.380549 0.421391
vt 0.383840 0.108282
vt 0.358903 0.103856
vt 0.352760 0.422613
vt 0.320795 0.085696
vt 0.318966 0.418208
vt 0.285559 0.083685
vt 0.281987 0.414873
vt 0.256803 0.073594
vt 0.254716 0.414389
vt 0.227504 0.068689
vt 0.227440 0.413978
vt 0.203778 0.066186
vt 0.200113 0.413617
vt 0.177384 0.065886
vt 0.176178 0.084439
vt 0.220003 0.430891
vt 0.550607 0.439596
vt 0.287308 0.566745
vt 0.264096 0.550253
vt 0.216856 0.548965
vt 0.547454 0.557664
vt 0.500233 0.556400
vt 0.302460 0.590907
vt 0.301758 0.618644
vt 0.476372 0.571459
vt 0.471779 0.593263
vt 0.461780 0.624498
vt 0.312611 0.631510
vt 0.493032 0.767747
vt 0.465794 0.772435
vt 0.448787 0.772592
vt 0.295081 0.633656
vt 0.488382 0.624345
vt 0.462871 0.784083
vt 0.521314 0.766772
vt 0.286949 0.812996
vt 0.298066 0.783335
vt 0.267699 0.636248
vt 0.516964 0.625120
vt 0.271477 0.779905
vt 0.284514 0.832644
vt 0.549628 0.765949
vt 0.239400 0.637254
vt 0.545483 0.624293
vt 0.243858 0.778727
vt 0.293264 0.848547
vt 0.260253 0.848523
vt 0.458397 0.812803
vt 0.596816 0.764612
vt 0.211069 0.637928
vt 0.473605 0.836824
vt 0.592785 0.622948
vt 0.214752 0.779822
vt 0.465956 0.857441
vt 0.710894 0.619628
vt 0.163879 0.639443
vt 0.497602 0.852005
vt 0.714873 0.761309
vt 0.167886 0.781109
vt 0.049782 0.784413
vt 0.045818 0.642733
vt 0.822228 0.159911
vt 0.823278 0.109711
vt 0.821111 0.080251
vt 0.962306 0.068318
vt 0.878653 0.166634
vt 0.867447 0.167350
vt 0.835826 0.170495
vt 0.707590 0.116358
vt 0.903805 0.164978
vt 0.814375 0.182591
vt 0.703201 0.087037
vt 0.930645 0.176130
vt 0.814162 0.182816
vt 0.706004 0.134201
vt 0.948322 0.195116
vt 0.796058 0.199604
vt 0.714612 0.165134
vt 0.962684 0.221508
vt 0.990841 0.397793
vt 0.964985 0.247702
vt 0.957046 0.268547
vt 0.938886 0.294811
vt 0.912777 0.306953
vt 0.873587 0.310647
vt 0.846964 0.383361
vt 0.839515 0.322889
vt 0.842975 0.306992
vt 0.849894 0.413230
vt 0.823940 0.304866
vt 0.732427 0.425175
vt 0.810841 0.303240
vt 0.731691 0.395536
vt 0.833514 0.319972
vt 0.727429 0.378638
vt 0.723154 0.345913
vt 0.183630 0.307276
vt 0.177606 0.339918
vt 0.064263 0.332506
vt 0.066903 0.297972
vt 0.171791 0.343075
vt 0.188223 0.259947
vt 0.071424 0.261422
vt 0.170058 0.370775
vt 0.062024 0.368696
vt 0.050675 0.402399
vt 0.074553 0.239752
vt 0.176244 0.375763
vt 0.059836 0.404190
vt 0.028495 0.430187
vt 0.017187 0.437093
vt 0.004514 0.264626
vt 0.176589 0.411394
vt 0.047597 0.302135
vt 0.057776 0.439690
vt 0.024592 0.273367
vt 0.175684 0.446547
vt 0.057035 0.452921
vt 0.174962 0.457991
vt 0.756893 0.675038
vt 0.798449 0.677506
vt 0.843186 0.633465
vt 0.840249 0.682354
vt 0.757043 0.736063
vt 0.788435 0.728338
vt 0.841899 0.722408
vt 0.756666 0.722333
vt 0.801066 0.779685
vt 0.769670 0.787406
vt 0.863829 0.744937
vt 0.788047 0.649768
vt 0.813331 0.585881
vt 0.760284 0.644901
vt 0.831862 0.806776
vt 0.759364 0.667341
vt 0.779709 0.803999
vt 0.810547 0.831051
vt 0.703654 0.897387
vt 0.688207 0.855355
vt 0.727155 0.798064
vt 0.771739 0.897293
vt 0.756248 0.871331
vt 0.729170 0.894316
vt 0.728358 0.851822
vt 0.728183 0.898733
vt 0.828966 0.857620
vt 0.756648 0.901455
vt 0.646160 0.896304
vt 0.640096 0.864545
vt 0.674940 0.810078
vt 0.700868 0.898286
vt 0.651717 0.803777
vt 0.591497 0.845380
vt 0.576599 0.872736
vt 0.628326 0.894653
vt 0.827251 0.472905
vt 0.811182 0.511483
vt 0.767780 0.501201
vt 0.785527 0.458131
vt 0.769478 0.460051
vt 0.717546 0.488373
vt 0.724559 0.522258
vt 0.859496 0.566803
vt 0.797365 0.561294
vt 0.776157 0.567615
vt 0.908965 0.558363
vt 0.863608 0.481169
vt 0.864675 0.513351
vt 0.828989 0.472221
vt 0.889736 0.461685
vt 0.896986 0.494681
vt 0.865962 0.461608
vt 0.972681 0.516751
vt 0.950818 0.541733
vt 0.935308 0.593083
vt 0.918840 0.469680
vt 0.969818 0.568900
vt 0.970549 0.656169
vt 0.964364 0.696858
vt 0.995489 0.635642
vt 0.961891 0.747090
vt 0.900163 0.578903
vt 0.916633 0.644090
vt 0.885451 0.632677
vt 0.883425 0.643703
vt 0.931913 0.792435
vt 0.905534 0.721140
vt 0.876618 0.689496
vt 0.915978 0.699110
vt 0.874477 0.683297
vt 0.879207 0.720407
# 138 texture coords

g Box002
f 1/235/1 2/236/2 3/233/3
f 3/233/3 4/238/4 1/235/1
f 5/249/5 6/253/6 7/250/7
f 7/250/7 8/251/8 5/249/5
f 8/251/8 7/252/7 9/247/9
f 9/247/9 10/245/10 8/251/8
f 10/245/10 9/246/9 11/244/11
f 11/244/11 12/237/12 10/245/10
f 12/237/12 11/228/11 2/236/2
f 2/236/2 1/239/1 12/237/12
f 13/219/13 9/225/9 7/226/7
f 11/228/11 9/225/9 13/219/13
f 13/219/13 14/230/14 11/228/11
f 11/228/11 14/230/14 3/233/3
f 3/233/3 2/236/2 11/228/11
f 15/222/15 16/220/16 17/224/17
f 16/220/16 15/221/15 18/218/18
f 18/218/18 13/219/13 16/220/16
f 13/219/13 18/231/18 19/229/19
f 19/229/19 14/230/14 13/219/13
f 14/230/14 19/234/19 4/232/4
f 4/232/4 3/233/3 14/230/14
f 15/243/15 20/248/20 5/249/5
f 8/251/8 15/243/15 5/249/5
f 15/243/15 8/251/8 10/245/10
f 10/245/10 18/241/18 15/243/15
f 18/241/18 10/245/10 12/237/12
f 12/237/12 19/240/19 18/241/18
f 19/240/19 12/237/12 1/239/1
f 1/239/1 4/242/4 19/240/19
f 21/199/1 22/208/2 23/203/3
f 23/203/3 24/204/4 21/199/1
f 25/195/21 26/193/22 27/183/23
f 27/183/23 28/197/24 25/195/21
f 28/182/24 27/183/23 29/187/25
f 29/187/25 30/189/10 28/182/24
f 30/186/10 29/187/25 31/190/11
f 31/190/11 32/191/12 30/186/10
f 32/198/12 31/190/11 22/196/2
f 22/196/2 21/199/1 32/198/12
f 27/183/23 33/184/26 34/185/27
f 34/185/27 29/187/25 27/183/23
f 31/190/11 29/187/25 34/185/27
f 34/185/27 35/188/14 31/190/11
f 31/190/11 35/188/14 23/192/3
f 23/192/3 22/196/2 31/190/11
f 33/210/26 36/211/28 37/201/18
f 37/201/18 34/213/27 33/210/26
f 34/200/27 37/201/18 38/206/19
f 38/206/19 35/207/14 34/200/27
f 35/205/14 38/206/19 24/204/4
f 24/204/4 23/209/3 35/205/14
f 36/211/28 28/212/24 30/202/10
f 30/202/10 37/201/18 36/211/28
f 37/201/18 30/202/10 32/198/12
f 32/198/12 38/206/19 37/201/18
f 38/206/19 32/198/12 21/199/1
f 21/199/1 24/204/4 38/206/19
f 25/214/21 28/212/24 36/211/28
f 39/126/29 40/127/30 25/125/21
f 41/1/31 42/2/32 43/40/33
f 43/40/33 44/41/34 41/1/31
f 45/3/35 41/1/31 44/41/34
f 44/41/34 46/42/36 45/3/35
f 47/43/37 48/39/38 46/42/36
f 48/39/38 45/3/35 46/42/36
f 49/74/39 50/4/40 47/76/37
f 50/4/40 48/77/38 47/76/37
f 51/5/41 50/4/40 49/74/39
f 49/74/39 52/72/42 51/5/41
f 51/5/41 52/72/42 53/70/43
f 51/5/41 53/70/43 54/6/44
f 55/68/45 54/6/44 53/70/43
f 56/64/46 57/7/47 58/66/48
f 58/66/48 57/7/47 59/8/49
f 60/63/50 61/9/51 56/64/46
f 62/61/52 63/59/53 64/10/54
f 64/10/54 65/11/55 62/61/52
f 66/55/56 67/12/57 64/10/54
f 64/10/54 68/57/58 66/55/56
f 69/52/59 70/13/60 71/54/61
f 66/55/56 71/54/61 70/13/60
f 70/13/60 67/12/57 66/55/56
f 72/14/62 70/13/60 69/52/59
f 72/14/62 73/51/63 74/49/64
f 75/46/65 76/45/66 42/2/32
f 55/68/45 58/66/48 59/8/49
f 77/32/67 78/33/68 79/26/69
f 79/26/69 80/27/70 81/28/71
f 81/28/71 82/29/72 83/30/73
f 79/26/69 81/28/71 83/30/73
f 83/30/73 84/31/74 85/18/75
f 85/47/75 86/15/76 87/44/77
f 83/30/73 85/18/75 87/19/77
f 79/26/69 83/30/73 87/19/77
f 87/19/77 88/20/71 89/21/71
f 89/21/71 90/22/71 91/23/78
f 87/19/77 89/21/71 91/23/78
f 79/26/69 87/19/77 91/23/78
f 91/23/78 92/24/79 93/25/80
f 79/26/69 91/23/78 93/25/80
f 77/32/67 79/26/69 93/25/80
f 77/32/67 93/25/80 94/34/81
f 43/40/33 42/2/32 76/45/66
f 26/124/22 75/129/65 95/130/82
f 33/184/26 26/193/22 96/194/83
f 58/147/48 5/149/5 56/150/46
f 61/9/51 60/63/50 62/61/52
f 62/61/52 65/11/55 61/9/51
f 56/64/46 61/9/51 57/7/47
f 69/139/59 26/124/22 73/136/63
f 97/156/84 62/154/52 5/149/5
f 74/133/64 73/136/63 26/124/22
f 26/193/22 33/184/26 27/183/23
f 63/59/53 68/57/58 64/10/54
f 69/52/59 73/51/63 72/14/62
f 60/152/50 5/149/5 62/154/52
f 5/149/5 60/152/50 56/150/46
f 98/16/85 99/93/86 100/17/87
f 100/17/87 101/90/88 98/16/85
f 102/112/89 103/105/90 104/107/91
f 103/105/90 105/100/92 106/102/93
f 106/102/93 104/107/91 103/105/90
f 105/100/92 107/94/94 108/99/95
f 108/99/95 106/102/93 105/100/92
f 107/94/94 101/90/88 100/17/87
f 100/17/87 108/99/95 107/94/94
f 109/97/96 110/91/97 111/95/98
f 111/95/98 112/101/96 109/97/96
f 110/91/97 113/92/99 114/89/100
f 114/89/100 111/95/98 110/91/97
f 113/92/99 99/93/86 98/16/85
f 98/16/85 114/89/100 113/92/99
f 40/79/30 115/83/101 116/84/101
f 111/88/98 114/89/100 98/16/85
f 98/16/85 101/90/88 107/86/94
f 111/88/98 98/16/85 107/86/94
f 106/98/93 108/99/95 100/17/87
f 100/17/87 99/93/86 113/96/99
f 106/98/93 100/17/87 113/96/99
f 104/103/91 106/98/93 113/96/99
f 96/216/83 117/215/102 36/211/28
f 36/211/28 33/217/26 96/216/83
f 118/161/103 119/167/104 120/168/104
f 120/168/104 121/172/104 20/173/20
f 118/161/103 120/168/104 20/173/20
f 118/161/103 20/173/20 96/174/83
f 120/171/105 119/167/105 63/170/105
f 62/175/106 120/171/106 63/170/106
f 121/177/107 120/171/107 62/175/107
f 62/175/108 97/179/108 121/177/108
f 26/164/109 122/165/109 96/169/109
f 97/179/110 5/181/110 20/180/20
f 20/180/20 121/177/111 97/179/111
f 107/86/101 116/84/101 112/87/101
f 123/111/112 115/114/112 40/117/112
f 40/117/112 39/120/112 123/111/112
f 117/131/113 123/134/113 39/126/113
f 39/126/113 25/125/21 117/131/113
f 117/215/112 25/214/21 36/211/112
f 116/84/114 103/80/114 102/81/114
f 116/84/101 105/85/101 103/80/101
f 116/84/101 107/86/101 105/85/101
f 124/78/115 116/84/115 102/81/115
f 124/78/116 102/81/116 125/82/116
f 125/118/117 126/121/117 127/122/117
f 127/122/117 124/123/117 125/118/117
f 20/223/20 15/222/17 17/224/17
f 17/224/117 16/220/117 13/219/117
f 17/224/117 13/219/117 7/226/117
f 17/224/117 7/226/117 6/227/6
f 126/153/118 17/155/118 6/148/6
f 6/148/6 127/151/119 126/153/119
f 128/157/120 20/158/20 17/155/121
f 123/111/104 129/104/104 116/106/104
f 116/106/104 115/114/104 123/111/104
f 112/101/122 116/106/122 129/104/122
f 129/104/122 109/97/122 112/101/122
f 125/118/104 102/112/104 128/115/120
f 128/115/120 126/121/104 125/118/104
f 104/107/123 128/115/120 102/112/123
f 20/108/20 128/109/120 104/103/124
f 20/108/20 104/103/125 113/96/125
f 110/110/113 20/108/20 113/96/113
f 109/113/113 20/108/20 110/110/113
f 91/38/126 90/35/126 48/39/126
f 48/77/126 50/4/126 91/75/126
f 92/73/127 91/75/127 50/4/127
f 50/4/127 51/5/127 92/73/127
f 93/71/128 92/73/128 51/5/128
f 51/5/128 54/6/128 93/71/128
f 94/69/129 93/71/129 54/6/129
f 54/6/130 55/68/130 94/69/130
f 77/67/131 94/69/131 55/68/131
f 55/68/132 59/8/132 77/67/132
f 26/124/133 95/130/133 74/133/133
f 69/159/134 118/161/134 130/162/134
f 130/162/135 122/165/135 26/164/135
f 26/164/136 69/159/136 130/162/136
f 90/35/137 89/36/137 45/3/137
f 45/3/137 48/39/137 90/35/137
f 89/36/138 88/37/138 41/1/138
f 41/1/138 45/3/138 89/36/138
f 88/37/139 87/44/139 42/2/139
f 42/2/139 41/1/139 88/37/139
f 87/44/140 86/15/140 75/46/140
f 75/46/140 42/2/140 87/44/140
f 86/15/141 85/47/141 95/48/141
f 95/48/142 75/46/142 86/15/142
f 74/49/143 95/48/143 85/47/143
f 85/47/144 84/50/144 72/14/144
f 74/49/145 85/47/145 72/14/145
f 84/50/146 83/53/146 70/13/146
f 70/13/147 72/14/147 84/50/147
f 83/53/148 82/56/148 67/12/148
f 67/12/148 70/13/148 83/53/148
f 82/56/149 81/58/149 64/10/149
f 64/10/149 67/12/149 82/56/149
f 80/60/150 65/11/150 64/10/150
f 64/10/150 81/58/150 80/60/150
f 79/62/151 61/9/151 65/11/151
f 65/11/151 80/60/151 79/62/151
f 78/65/152 77/67/152 59/8/152
f 59/8/153 57/7/153 78/65/153
f 79/62/154 78/65/154 57/7/154
f 57/7/154 61/9/154 79/62/154
f 112/87/101 111/88/101 107/86/101
f 96/174/101 122/178/101 130/176/101
f 118/161/101 96/174/101 130/176/101
f 118/161/101 71/160/101 66/163/101
f 68/166/101 63/170/101 119/167/101
f 66/163/101 68/166/101 119/167/101
f 66/163/101 119/167/101 118/161/101
f 129/119/101 96/116/101 109/113/155
f 109/113/102 96/116/102 20/108/156
f 96/140/157 129/137/157 117/131/157
f 117/131/113 129/137/113 123/134/113
f 118/161/158 69/159/158 71/160/158
f 40/79/101 116/84/101 124/78/101
f 126/153/159 128/157/120 17/155/159
f 75/129/160 26/124/160 25/125/160
f 75/129/161 25/125/161 40/127/161
f 76/128/29 75/129/29 40/127/29
f 43/132/29 76/128/29 40/127/29
f 44/135/29 43/132/29 40/127/29
f 46/138/29 44/135/29 40/127/29
f 47/141/29 46/138/29 40/127/29
f 124/142/29 47/141/29 40/127/29
f 124/142/29 49/143/29 47/141/29
f 124/142/29 52/144/29 49/143/29
f 124/142/29 53/145/29 52/144/29
f 124/142/162 55/146/162 53/145/162
f 124/142/163 58/147/163 55/146/163
f 124/142/164 5/149/164 58/147/164
f 5/149/165 124/142/165 6/148/165
f 6/148/166 124/142/166 127/151/166
# 256 faces

