# 3ds Max Wavefront OBJ Exporter v0.97b - (c)2007 guruware
# 创建的文件:12.07.2015 22:30:20

#
# object Box002
#

v  10.7500 38.1676 -29.7395
v  17.2500 38.1676 -29.7395
v  17.2500 24.1676 -29.7395
v  10.7500 24.1676 -29.7395
v  10.7654 14.9926 -7.2707
v  17.2500 15.1676 -6.7395
v  17.2500 18.1676 -10.7395
v  10.7500 18.1676 -10.7395
v  17.2500 28.1676 -14.7395
v  10.7500 28.1676 -14.7395
v  17.2500 36.1676 -21.7395
v  10.7500 36.1676 -21.7395
v  17.2500 15.1676 -19.7395
v  17.2500 22.1676 -23.7395
v  10.7500 6.1676 -15.7395
v  17.2500 6.1676 -15.7395
v  17.2500 0.3413 -7.0000
v  10.7500 15.1676 -19.7395
v  10.7500 22.1676 -23.7395
v  10.8263 0.4294 -7.1321
v  17.2500 15.0000 -6.9417
v  17.2500 15.0000 -6.7395
v  -17.2500 38.1676 -29.7395
v  -10.7500 38.1676 -29.7395
v  -10.7500 24.1676 -29.7395
v  -17.2500 24.1676 -29.7395
v  -17.2500 15.1676 -6.7395
v  -10.9097 15.0011 -7.7090
v  -10.7500 18.1676 -11.8288
v  -17.2500 18.1676 -10.7395
v  -10.7500 28.1676 -14.7395
v  -17.2500 28.1676 -14.7395
v  -10.7500 36.1676 -21.7395
v  -17.2500 36.1676 -21.7395
v  -10.7500 6.1676 -15.7395
v  -10.7500 15.1676 -19.7395
v  -10.7500 22.1676 -23.7395
v  -17.2500 6.1676 -15.7395
v  -17.2500 15.1676 -19.7395
v  -17.2500 22.1676 -23.7395
v  -17.2500 15.0000 -7.0000
v  -21.0000 15.0000 -7.0000
v  -21.0000 15.0000 11.0000
v  -17.2500 15.0000 -6.7395
v  -10.6955 15.0000 6.8010
v  -12.0674 15.0000 4.4248
v  21.0000 15.0000 -7.0000
v  12.4583 15.0000 -3.6054
v  13.0506 15.0000 -0.2460
v  -7.6604 16.3911 5.4671
v  -9.3969 15.6126 2.5619
v  -9.4001 15.0000 2.5528
v  -7.7011 15.0000 5.8239
v  -5.0000 16.9688 7.6234
v  -5.1079 15.0000 7.8496
v  -1.6130 15.0000 9.3741
v  -1.7365 17.2763 8.7708
v  1.7365 15.0000 9.3807
v  1.7365 17.2763 8.7708
v  5.0000 16.9688 7.6234
v  4.5670 15.0000 8.3140
v  7.5956 15.0000 6.0702
v  7.6604 16.3911 5.4671
v  9.2370 15.3063 2.5731
v  9.2358 15.2343 -6.9487
v  9.3969 21.8039 -8.4208
v  10.2450 14.3803 -1.7261
v  9.6000 22.6891 -4.1411
v  7.6604 15.0000 -9.7743
v  7.6604 20.7912 -11.3260
v  6.5084 14.8552 -11.2769
v  2.3221 14.5336 -12.9695
v  1.7365 19.9059 -14.6297
v  5.0000 20.2134 -13.4823
v  -1.7901 13.7101 -12.9695
v  -1.7365 19.9059 -14.6297
v  1.7365 13.7101 -12.9695
v  -6.1629 14.8715 -11.4386
v  -5.0000 20.2134 -13.4823
v  -2.2325 14.4181 -12.8904
v  -8.1092 20.5406 -10.8500
v  -8.0971 15.0000 -8.9740
v  -8.1231 15.0000 -8.9445
v  -9.4848 15.0000 -2.0666
v  -9.4587 15.0000 -0.6440
v  9.5937 55.0000 -13.1568
v  9.3906 54.3491 -17.4365
v  7.6541 53.3363 -20.3417
v  4.9937 52.7586 -22.4980
v  1.7302 52.4511 -23.6454
v  -1.7428 52.4511 -23.6454
v  -5.0063 52.7586 -22.4980
v  -7.6668 53.3363 -20.3417
v  -9.4032 54.1148 -17.4365
v  -9.4925 55.0000 -13.1568
v  -9.4033 55.8852 -8.5243
v  -7.6668 56.6637 -5.6191
v  -5.0063 57.2415 -3.4628
v  -1.7428 57.5489 -2.3154
v  1.7302 57.5489 -2.3154
v  4.9937 57.2414 -3.4628
v  7.6541 56.6637 -5.6191
v  9.3906 55.8852 -8.5243
v  -9.4250 15.0000 -6.1012
v  10.0232 15.0000 8.1893
v  21.0000 15.0000 11.0000
v  10.7006 15.0000 7.0159
v  7.9781 15.0000 9.9054
v  9.1815 15.0000 8.8955
v  -7.8606 15.0000 9.8955
v  -6.5080 14.9685 11.0305
v  -9.0749 15.0000 8.8765
v  -9.8939 15.0000 8.1893
v  12.2806 15.0000 -4.6132
v  -10.7500 0.4384 -7.0404
v  12.2806 15.0000 4.2793
v  -12.2273 15.0000 -4.1828
v  -12.9354 15.0000 -0.1670
v  -2.2574 15.0000 11.0000
v  2.2574 15.0000 11.0000
v  4.4269 15.0000 11.0000
v  -2.1928 12.0000 -12.9695
v  10.0232 15.0000 -8.5232
v  6.4641 15.0000 11.0183
v  2.3221 12.0000 -12.9695
v  -8.5000 -10.0000 11.0000
v  -8.5000 -10.0000 -7.0000
v  8.5000 -10.0000 -7.0000
v  8.5000 -10.0000 11.0000
v  15.0000 0.0000 11.0231
v  12.0000 -2.0000 11.0000
v  12.0000 -2.0000 -6.9769
v  10.0000 -5.0000 11.0000
v  10.0000 -5.0000 -7.0000
v  10.0000 -8.5000 11.0000
v  10.0000 -8.5000 -7.0000
v  -12.0000 -2.0000 -7.0000
v  -10.0000 -5.0000 -7.0000
v  -10.0000 -5.0000 11.0000
v  -12.0000 -2.0000 11.0000
v  -10.0000 -8.5000 -7.0000
v  -10.0000 -8.5000 11.0000
v  -21.0000 0.0000 11.0000
v  -15.0000 0.0000 11.0000
v  -17.2500 0.3413 -7.0000
v  -2.2652 0.0000 -13.3754
v  2.3221 0.0000 -12.9695
v  6.5646 0.0000 -11.4253
v  10.0232 0.0000 -8.5232
v  10.9026 0.0000 -7.0000
v  -21.0000 0.0000 -7.0000
v  -9.8939 0.0000 -8.5232
v  21.0000 0.0000 11.0000
v  21.0000 0.0000 -7.0000
v  15.0423 0.0000 -6.9712
v  -15.0000 0.0000 -7.0000
v  -10.7500 0.3682 -7.0404
v  -6.1681 0.0000 -11.3434
# 158 vertices

vn -0.5656 0.6500 -0.5075
vn 0.5656 0.6500 -0.5075
vn 0.5962 -0.4694 -0.6513
vn -0.5962 -0.4694 -0.6513
vn -0.3666 0.9091 0.1980
vn 0.5867 0.3597 0.7255
vn 0.4417 0.5317 0.7226
vn -0.7609 0.3683 0.5342
vn 0.6711 0.3873 0.6322
vn -0.6711 0.3873 0.6322
vn 0.6456 0.6516 0.3982
vn -0.6456 0.6516 0.3982
vn 0.4910 -0.3935 -0.7772
vn 0.7969 -0.4672 -0.3830
vn -0.7197 -0.4162 -0.5557
vn 0.0000 -0.6446 -0.7645
vn 0.0000 -0.8321 -0.5547
vn -0.7186 -0.3141 -0.6204
vn -0.7969 -0.4672 -0.3830
vn -1.0000 -0.0041 0.0061
vn 0.8390 0.5441 -0.0000
vn 0.2749 0.9140 0.2985
vn -0.5883 0.6437 0.4894
vn 0.6475 0.7080 0.2820
vn 0.8242 0.3048 0.4772
vn -0.7406 0.4022 0.5383
vn 0.6710 0.3767 0.6386
vn 0.6521 -0.4915 -0.5772
vn 0.7186 -0.3141 -0.6204
vn -0.3679 -0.6007 -0.7098
vn -1.0000 0.0000 -0.0000
vn 0.0000 1.0000 -0.0000
vn 0.0001 0.9717 0.2364
vn -0.1191 0.9927 0.0210
vn -0.0440 0.9986 -0.0292
vn -0.7714 0.1713 0.6129
vn -0.9521 0.0005 0.3059
vn -0.6158 0.7694 0.1697
vn -0.4514 0.8084 0.3777
vn -0.4754 0.1370 0.8690
vn -0.3075 0.7830 0.5407
vn -0.1076 0.8281 0.5501
vn -0.1975 0.2256 0.9540
vn 0.0974 0.8269 0.5538
vn 0.1731 0.2544 0.9515
vn 0.4954 0.2104 0.8428
vn 0.2686 0.8050 0.5289
vn 0.4282 0.8246 0.3696
vn 0.7894 0.2128 0.5758
vn 0.4738 0.8625 0.1776
vn 0.7504 0.6167 -0.2379
vn 0.9549 -0.0543 -0.2918
vn 0.5206 0.8538 0.0018
vn 0.9971 0.0766 -0.0026
vn 0.6698 0.5495 -0.4994
vn 0.7841 -0.1339 -0.6060
vn 0.6240 -0.1140 -0.7731
vn 0.3143 -0.2106 -0.9257
vn 0.1815 -0.2620 -0.9478
vn 0.4725 -0.2184 -0.8538
vn -0.1384 -0.1193 -0.9832
vn -0.1728 -0.2535 -0.9518
vn 0.0522 -0.1304 -0.9901
vn -0.6017 -0.1491 -0.7847
vn -0.4836 -0.2111 -0.8494
vn -0.6199 -0.3436 -0.7054
vn -0.6911 -0.1643 -0.7038
vn -0.6056 0.5872 -0.5371
vn -0.3524 0.8827 -0.3108
vn -0.0413 0.9991 0.0009
vn -0.7053 0.7088 0.0129
vn -0.0327 0.9768 -0.2119
vn -0.3336 0.9342 -0.1263
vn -0.0379 0.9742 -0.2223
vn -0.0000 0.9659 -0.2587
vn 0.0000 0.9659 -0.2588
vn 0.0000 0.9659 -0.2589
vn 0.0070 0.9740 -0.2264
vn -0.0001 0.9659 -0.2589
vn 0.0752 0.9772 -0.1986
vn 0.3594 0.9153 -0.1818
vn 0.0031 0.9731 -0.2302
vn -0.0016 0.9718 -0.2359
vn 0.0001 0.9660 -0.2587
vn 0.0289 0.9753 -0.2189
vn 0.1352 0.9743 -0.1802
vn 0.0007 1.0000 0.0000
vn 0.0002 0.9999 0.0124
vn -0.0051 0.9994 0.0338
vn -0.0842 0.9959 0.0344
vn 0.4024 -0.8360 -0.3731
vn -0.0009 1.0000 -0.0002
vn -0.0000 1.0000 0.0000
vn -0.0005 1.0000 0.0023
vn -0.1288 0.0303 -0.9912
vn -0.0850 0.9948 0.0562
vn 0.0000 -1.0000 -0.0001
vn 0.0000 0.0000 -1.0000
vn -0.2971 -0.7173 0.6303
vn -0.2971 -0.7173 -0.6303
vn 0.2971 -0.7173 -0.6303
vn 0.2971 -0.7173 0.6303
vn 0.5547 -0.8321 -0.0000
vn 0.7068 -0.7074 -0.0000
vn 0.7520 -0.5468 -0.3681
vn 0.9571 -0.2898 -0.0000
vn 0.6001 -0.1772 -0.7801
vn 0.8773 -0.3634 0.3136
vn 0.7173 -0.2971 -0.6303
vn -0.8321 -0.5547 -0.0000
vn -0.9571 -0.2898 -0.0000
vn -0.8679 -0.2628 0.4215
vn -0.8667 -0.3587 -0.3467
vn -0.7173 -0.2971 0.6303
vn 0.0000 0.0000 1.0000
vn -0.0022 -0.2579 -0.9662
vn -0.0173 -0.9992 0.0356
vn 0.0000 -1.0000 -0.0000
vn -0.0087 -0.9998 0.0180
vn -0.0074 0.0814 -0.9967
vn 0.0881 0.0331 -0.9956
vn 0.3420 0.0000 -0.9397
vn 0.3741 0.0107 -0.9273
vn 0.6428 0.0101 -0.7660
vn 0.6167 0.0000 -0.7872
vn -0.8697 -0.0322 -0.4926
vn 0.8603 -0.0013 -0.5098
vn 0.8660 0.0000 -0.5000
vn 0.1512 0.0000 0.9885
vn -0.0001 1.0000 0.0003
vn -0.0008 -0.0104 0.9999
vn -0.0008 0.0018 1.0000
vn 0.0039 0.0000 1.0000
vn 1.0000 0.0000 -0.0000
vn -0.0000 -0.8321 -0.5547
vn 0.0004 0.0040 -1.0000
vn -0.0156 0.0000 -0.9999
vn 0.0066 -0.2931 -0.9561
vn -0.0045 -0.3890 -0.9212
vn 0.0234 0.2571 -0.9661
vn -0.5547 -0.8321 -0.0000
vn 0.5493 -0.8356 0.0013
vn -0.0998 0.9370 -0.3347
vn 0.0000 -0.0918 -0.9958
vn 0.0070 -0.0077 -0.9999
vn 0.0038 -0.0095 -0.9999
vn 0.0015 -0.0173 -0.9998
vn -0.0082 -0.0123 -0.9999
vn 0.0000 0.2654 0.9641
vn 0.3420 0.2494 0.9060
vn 0.6428 0.2034 0.7386
vn 0.8660 0.1328 0.4820
vn 0.8899 0.1172 0.4409
vn 0.9991 0.0078 0.0423
vn 0.9967 0.0220 0.0780
vn 0.0005 1.0000 0.0002
vn 0.0854 -0.9543 0.2863
vn 0.1153 -0.9684 0.2214
vn 0.2921 -0.8750 0.3860
vn -0.3438 0.0251 -0.9387
vn -0.3382 0.0338 -0.9405
vn -0.4618 -0.0055 -0.8870
vn -0.6035 0.0024 -0.7973
vn -0.6179 -0.0048 -0.7862
vn -0.3420 0.2493 0.9060
vn -0.6428 0.2032 0.7386
vn -0.8660 0.1326 0.4821
vn -0.9998 0.0049 0.0183
vn -0.9998 -0.0052 -0.0198
vn -0.9999 -0.0043 -0.0148
vn -0.9027 -0.1193 -0.4133
vn -0.8660 -0.1282 -0.4833
vn -0.9596 -0.0893 -0.2667
vn -0.6428 -0.2046 -0.7382
vn -0.6449 -0.2044 -0.7364
vn -0.3420 -0.2509 -0.9056
vn 0.0000 -0.2670 -0.9637
vn 0.3420 -0.2508 -0.9056
vn 0.6428 -0.2044 -0.7383
vn 0.9989 -0.0125 -0.0455
vn 0.9989 -0.0122 -0.0449
vn 0.8704 -0.1313 -0.4745
# 182 vertex normals

vt 0.0000 0.0000 0.0000
vt 1.0000 0.0000 0.0000
vt 1.0000 1.0000 0.0000
vt 0.0000 1.0000 0.0000
vt 1.0000 0.2500 0.0000
vt 0.0000 0.2500 0.0000
vt 1.0000 0.5000 0.0000
vt 0.0000 0.5000 0.0000
vt 1.0000 0.7500 0.0000
vt 0.0000 0.7500 0.0000
vt 0.0000 0.0072 0.0000
vt 0.0000 0.0146 0.0000
vt 0.1011 0.0146 0.0000
vt 0.9417 0.0146 0.0000
vt 0.0179 0.0042 0.0000
vt 0.0112 0.0000 0.0000
vt 0.0216 0.0076 0.0000
vt 0.9770 0.0091 0.0000
vt 0.0893 0.9855 0.0000
vt 0.2430 0.2430 0.0000
vt 0.2147 0.3572 0.0000
vt 0.7976 0.7988 0.0000
vt 0.8104 0.6292 0.0000
vt 0.3611 0.2000 1.0000
vt 0.3056 0.2000 1.0000
vt 0.3056 0.1841 1.0000
vt 0.3520 0.1673 1.0000
vt 0.4167 0.2000 1.0000
vt 0.3611 0.1640 1.0000
vt 0.4035 0.1526 1.0000
vt 0.4722 0.1411 1.0000
vt 0.4722 0.2000 1.0000
vt 0.4565 0.1433 1.0000
vt 0.4167 0.1490 1.0000
vt 0.5278 0.1411 1.0000
vt 0.5278 0.2000 1.0000
vt 0.5114 0.1411 1.0000
vt 0.5833 0.2000 1.0000
vt 0.5686 0.1469 1.0000
vt 0.5833 0.1490 1.0000
vt 0.6160 0.1578 1.0000
vt 0.6389 0.2000 1.0000
vt 0.6944 0.2000 1.0000
vt 0.6389 0.1640 1.0000
vt 0.8056 0.2300 1.0000
vt 0.8056 0.4000 1.0000
vt 0.7522 0.2080 1.0000
vt 0.7500 0.4000 1.0000
vt 0.8611 0.2501 1.0000
vt 0.8611 0.4000 1.0000
vt 0.8148 0.2333 1.0000
vt 0.9517 0.2588 1.0000
vt 0.9622 0.2595 1.0000
vt 0.9722 0.4000 1.0000
vt 0.9167 0.4000 1.0000
vt 0.9167 0.2563 1.0000
vt 0.9832 0.2396 1.0000
vt 1.0278 0.4000 1.0000
vt 0.9722 0.2396 1.0000
vt 0.0833 0.2518 1.0000
vt 0.0833 0.4000 1.0000
vt 0.0430 0.2546 1.0000
vt 0.0278 0.2396 1.0000
vt 0.0356 0.2551 1.0000
vt 0.0278 0.4000 1.0000
vt 0.1389 0.4000 1.0000
vt 0.1389 0.2501 1.0000
vt 0.1515 0.2455 1.0000
vt 0.2518 0.2063 1.0000
vt 0.2671 0.2000 1.0000
vt 0.7329 0.2000 1.0000
vt 0.7497 0.2069 1.0000
vt 0.5000 1.0000 0.2500
vt 0.3290 0.9698 0.2500
vt 0.1786 0.8830 0.2500
vt 0.0670 0.7500 0.2500
vt 0.0076 0.5868 0.2500
vt 0.0076 0.4132 0.2500
vt 0.0670 0.2500 0.2500
vt 0.1786 0.1170 0.2500
vt 0.3290 0.0302 0.2500
vt 0.5000 0.0000 0.2500
vt 0.6710 0.0302 0.2500
vt 0.8214 0.1170 0.2500
vt 0.9330 0.2500 0.2500
vt 0.9924 0.4132 0.2500
vt 0.9924 0.5868 0.2500
vt 0.9330 0.7500 0.2500
vt 0.8214 0.8830 0.2500
vt 0.6710 0.9698 0.2500
vt 0.3016 0.1858 1.0000
vt 0.2440 0.9855 0.0000
vt 0.2741 0.7302 0.0000
vt 0.2760 0.9474 0.0000
vt 0.7386 0.1561 0.0000
vt 0.7548 0.2213 0.0000
vt 0.6900 0.0608 0.0000
vt 0.7186 0.1169 0.0000
vt 0.3128 0.0614 0.0000
vt 0.3442 0.0000 0.0000
vt 0.2839 0.1180 0.0000
vt 0.2644 0.1561 0.0000
vt 0.9107 0.9855 0.0000
vt 0.9107 0.9948 0.0000
vt 0.7970 0.8059 0.0000
vt 0.7924 0.8674 0.0000
vt 0.7880 0.9855 0.0000
vt 0.0334 0.0084 0.0000
vt 0.1487 0.0084 0.0000
vt 0.7286 0.7302 0.0000
vt 0.7271 0.6469 0.0000
vt 0.6824 0.2867 0.0000
vt 0.7924 0.3734 0.0000
vt 0.8111 0.6204 0.0000
vt 0.7201 0.4444 0.0000
vt 0.0000 0.0112 0.0000
vt 0.2089 0.8435 0.0000
vt 0.1920 0.6204 0.0000
vt 0.2107 0.3734 0.0000
vt 0.2763 0.4597 0.0000
vt 0.2748 0.6469 0.0000
vt 0.3176 0.2867 0.0000
vt 0.2477 0.2236 0.0000
vt 0.3810 0.1583 0.0000
vt 0.3116 0.3116 0.0000
vt 0.4463 0.0000 0.0000
vt 0.5537 0.0000 0.0000
vt 0.5170 0.0900 0.0000
vt 0.6581 0.0000 0.0000
vt 0.5413 0.0900 0.0000
vt 0.4587 0.0900 0.0000
vt 0.4366 0.1093 0.0000
vt 0.6190 0.1583 0.0000
vt 0.6563 0.2338 0.0000
vt 0.5984 0.1402 0.0000
vt 0.7284 0.7402 0.0000
vt 0.7952 0.8301 0.0000
vt 0.7636 0.9839 0.0000
vt 0.7237 0.9811 0.0000
vt 0.8762 0.2542 1.0000
vt 1.0278 0.8000 1.0000
vt 1.0278 0.9568 1.0000
vt 1.0222 0.9140 1.0000
vt 0.1261 0.2080 0.2500
vt 0.9924 0.5845 0.2500
vt 0.2372 0.8928 0.2500
vt 0.1577 0.1877 0.2500
vt 0.1305 0.2029 0.2500
vt 0.0890 0.2635 1.0000
vt 0.1001 0.2605 1.0000
vt 0.1305 0.7921 0.2500
vt 0.2303 0.8478 0.2500
vt 0.9794 0.9140 1.0000
vt 0.9722 0.9689 1.0000
vt 0.9722 0.8000 1.0000
vt 0.8754 0.0000 0.0000
vt 1.0000 0.0084 0.0000
vt 0.9107 0.0228 0.0000
vt 1.0278 0.0000 1.0000
vt 0.9722 0.0000 1.0000
vt 0.9167 0.0000 1.0000
vt 0.8611 0.0000 1.0000
vt 0.8395 0.0000 1.0000
vt 0.0278 0.0000 1.0000
vt 0.0278 0.8000 1.0000
vt 1.0278 0.2396 1.0000
vt 0.8611 1.0000 1.0000
vt 0.0250 0.0110 0.0000
vt 0.1389 0.0000 1.0000
vt 1.0000 0.0112 0.0000
vt 0.1429 0.0000 0.0000
vt 0.4918 0.4142 0.5858
vt 0.8395 0.0228 1.0000
vt 0.8571 1.0000 0.0000
vt 0.8571 0.0000 0.0000
vt 0.5278 1.0000 1.0000
vt 0.4722 1.0000 1.0000
vt 0.6389 1.0000 1.0000
vt 0.6944 1.0000 1.0000
vt 0.7500 1.0000 1.0000
vt 0.1389 1.0000 1.0000
vt 0.1808 0.2349 1.0000
vt 0.1558 0.2440 1.0000
vt 0.6814 0.0000 1.0000
vt 0.2500 0.2071 1.0000
vt 0.1944 1.0000 1.0000
vt 0.2019 0.2269 1.0000
vt 0.1498 0.3496 1.0000
vt 0.0833 1.0000 1.0000
vt 1.0278 1.0000 1.0000
vt 0.9722 1.0000 1.0000
vt 0.9167 1.0000 1.0000
vt 0.8056 1.0000 1.0000
# 193 texture coords

g Box002
f 1/1/1 2/2/2 3/3/3 
f 3/3/3 4/4/4 1/1/1 
f 5/1/5 6/2/6 7/5/7 
f 7/5/7 8/6/8 5/1/5 
f 8/6/8 7/5/7 9/7/9 
f 9/7/9 10/8/10 8/6/8 
f 10/8/10 9/7/9 11/9/11 
f 11/9/11 12/10/12 10/8/10 
f 12/10/12 11/9/11 2/3/2 
f 2/3/2 1/4/1 12/10/12 
f 13/7/13 9/8/9 7/6/7 
f 11/10/11 9/8/9 13/7/13 
f 13/7/13 14/9/14 11/10/11 
f 11/10/11 14/9/14 3/3/3 
f 3/3/3 2/4/2 11/10/11 
f 15/5/15 16/6/16 17/11/17 
f 16/6/16 15/5/15 18/7/18 
f 18/7/18 13/8/13 16/6/16 
f 13/8/13 18/7/18 19/9/19 
f 19/9/19 14/10/14 13/8/13 
f 14/10/14 19/9/19 4/3/4 
f 4/3/4 3/4/3 14/10/14 
f 15/6/15 20/12/20 5/13/5 
f 8/5/8 15/6/15 5/14/5 
f 15/6/15 8/5/8 10/7/10 
f 10/7/10 18/8/18 15/6/15 
f 18/8/18 10/7/10 12/9/12 
f 12/9/12 19/10/19 18/8/18 
f 19/10/19 12/9/12 1/3/1 
f 1/3/1 4/4/4 19/10/19 
f 21/15/21 6/1/6 22/16/22 
f 21/17/21 7/6/7 6/1/6 
f 23/1/1 24/2/2 25/3/3 
f 25/3/3 26/4/4 23/1/1 
f 27/1/23 28/2/24 29/5/25 
f 29/5/25 30/6/26 27/1/23 
f 30/6/26 29/5/25 31/7/27 
f 31/7/27 32/8/10 30/6/26 
f 32/8/10 31/7/27 33/9/11 
f 33/9/11 34/10/12 32/8/10 
f 34/10/12 33/9/11 24/3/2 
f 24/3/2 23/4/1 34/10/12 
f 29/6/25 35/5/28 36/7/29 
f 36/7/29 31/8/27 29/6/25 
f 33/10/11 31/8/27 36/7/29 
f 36/7/29 37/9/14 33/10/11 
f 33/10/11 37/9/14 25/3/3 
f 25/3/3 24/4/2 33/10/11 
f 35/6/28 38/5/30 39/7/18 
f 39/7/18 36/8/29 35/6/28 
f 36/8/29 39/7/18 40/9/19 
f 40/9/19 37/10/14 36/8/29 
f 37/10/14 40/9/19 26/3/4 
f 26/3/4 25/4/3 37/10/14 
f 38/6/30 30/5/26 32/7/10 
f 32/7/10 39/8/18 38/6/30 
f 39/8/18 32/7/10 34/9/12 
f 34/9/12 40/10/19 39/8/18 
f 40/10/19 34/9/12 23/3/1 
f 23/3/1 26/4/4 40/10/19 
f 41/18/31 30/5/26 38/6/30 
f 42/4/32 43/1/33 44/19/32 
f 27/2/23 30/5/26 41/18/31 
f 43/1/33 45/20/32 46/21/32 
f 47/3/32 48/22/34 49/23/35 
f 50/24/36 51/25/37 52/26/38 
f 52/26/38 53/27/39 50/24/36 
f 54/28/40 50/24/36 53/29/39 
f 53/29/39 55/30/41 54/28/40 
f 56/31/42 57/32/43 55/33/41 
f 57/32/43 54/28/40 55/34/41 
f 58/35/44 59/36/45 56/37/42 
f 59/36/45 57/32/43 56/31/42 
f 60/38/46 59/36/45 58/35/44 
f 58/35/44 61/39/47 60/38/46 
f 60/38/46 61/40/47 62/41/48 
f 60/38/46 62/41/48 63/42/49 
f 64/43/50 63/42/49 62/44/48 
f 65/45/51 66/46/52 67/47/53 
f 67/47/53 66/46/52 68/48/54 
f 69/49/55 70/50/56 65/51/51 
f 71/52/57 72/53/58 73/54/59 
f 73/54/59 74/55/60 71/56/57 
f 75/57/61 76/58/62 73/54/59 
f 73/54/59 77/59/63 75/57/61 
f 78/60/64 79/61/65 80/62/66 
f 75/63/61 80/64/66 79/61/65 
f 79/61/65 76/65/62 75/63/61 
f 81/66/67 79/61/65 78/60/64 
f 81/66/67 82/67/68 83/68/69 
f 84/69/70 85/70/71 51/25/37 
f 64/71/50 67/72/53 68/48/54 
f 86/73/72 87/74/73 88/75/74 
f 88/75/74 89/76/75 90/77/76 
f 90/77/76 91/78/77 92/79/78 
f 88/75/74 90/77/76 92/79/78 
f 92/79/78 93/80/79 94/81/80 
f 94/81/80 95/82/81 96/83/82 
f 92/79/78 94/81/80 96/83/82 
f 88/75/74 92/79/78 96/83/82 
f 96/83/82 97/84/76 98/85/76 
f 98/85/76 99/86/76 100/87/83 
f 96/83/82 98/85/76 100/87/83 
f 88/75/74 96/83/82 100/87/83 
f 100/87/83 101/88/84 102/89/85 
f 88/75/74 100/87/83 102/89/85 
f 86/73/72 88/75/74 102/89/85 
f 86/73/72 102/89/85 103/90/86 
f 52/91/38 51/25/37 85/70/71 
f 28/92/24 84/93/70 104/94/87 
f 105/95/32 106/2/32 107/96/32 
f 108/97/32 106/2/32 109/98/32 
f 110/99/88 43/1/33 111/100/89 
f 112/101/32 43/1/33 110/99/88 
f 113/102/32 43/1/33 112/101/32 
f 22/103/22 47/3/32 21/104/21 
f 48/105/34 47/3/32 22/103/22 
f 114/106/90 22/103/22 5/107/5 
f 35/5/28 28/108/24 115/109/91 
f 49/23/35 48/22/34 67/110/53 
f 64/111/50 49/23/35 67/110/53 
f 62/112/48 107/96/32 116/113/32 
f 62/112/48 116/113/32 49/114/35 
f 62/112/48 49/114/35 64/115/50 
f 22/116/22 6/1/6 5/2/5 
f 44/19/32 43/1/33 117/117/92 
f 28/92/24 117/117/92 118/118/93 
f 118/118/93 46/119/32 52/120/38 
f 118/118/93 52/120/38 85/121/71 
f 118/118/93 85/121/71 84/93/70 
f 28/92/24 118/118/93 84/93/70 
f 53/122/39 45/123/32 113/102/32 
f 113/102/32 112/101/32 55/124/41 
f 53/122/39 113/102/32 55/124/41 
f 53/125/39 52/120/38 46/21/32 
f 53/125/39 46/21/32 45/20/32 
f 110/99/88 111/100/89 119/126/94 
f 110/99/88 119/126/94 120/127/32 
f 56/128/42 110/99/88 120/127/32 
f 120/127/32 121/129/32 108/97/32 
f 56/128/42 120/127/32 108/97/32 
f 56/128/42 108/97/32 58/130/44 
f 110/99/88 56/131/42 55/132/41 
f 110/99/88 55/124/41 112/101/32 
f 121/129/32 106/2/32 108/97/32 
f 61/133/47 109/98/32 105/95/32 
f 105/95/32 107/96/32 62/112/48 
f 61/133/47 105/95/32 62/134/48 
f 61/135/47 58/130/44 108/97/32 
f 61/135/47 108/97/32 109/98/32 
f 67/136/53 48/137/34 114/106/90 
f 67/136/53 114/106/90 5/138/5 
f 67/136/53 5/138/5 65/139/51 
f 70/50/56 69/49/55 71/140/57 
f 71/140/57 74/55/60 70/50/56 
f 65/51/51 70/50/56 66/46/52 
f 122/141/95 80/142/66 75/143/61 
f 78/79/64 28/80/24 82/144/68 
f 119/86/94 121/145/32 120/87/32 
f 123/75/96 71/76/57 5/146/5 
f 83/147/69 82/148/68 28/80/24 
f 28/108/24 35/5/28 29/6/25 
f 72/53/58 77/59/63 73/54/59 
f 78/149/64 82/150/68 81/66/67 
f 105/95/32 109/98/32 106/2/32 
f 113/102/32 45/123/32 43/1/33 
f 114/106/90 48/137/34 22/103/22 
f 116/113/32 107/96/32 106/2/32 
f 49/114/35 116/113/32 106/2/32 
f 106/2/32 47/3/32 49/114/35 
f 46/119/32 118/118/93 43/1/33 
f 118/118/93 117/117/92 43/1/33 
f 120/87/97 124/88/97 119/86/97 
f 69/151/55 5/146/5 71/76/57 
f 5/146/5 69/151/55 65/152/51 
f 77/153/63 72/154/58 125/155/98 
f 126/1/99 127/4/100 128/3/101 
f 128/3/101 129/2/102 126/1/99 
f 130/1/103 131/6/104 132/5/105 
f 131/6/104 133/8/106 134/7/107 
f 134/7/107 132/5/105 131/6/104 
f 133/8/106 135/10/108 136/9/109 
f 136/9/109 134/7/107 133/8/106 
f 135/10/108 129/4/102 128/3/101 
f 128/3/101 136/9/109 135/10/108 
f 137/6/110 138/8/111 139/7/112 
f 139/7/112 140/5/110 137/6/110 
f 138/8/111 141/10/113 142/9/114 
f 142/9/114 139/7/112 138/8/111 
f 141/10/113 127/4/100 126/3/99 
f 126/3/99 142/9/114 141/10/113 
f 43/3/33 143/2/115 144/156/115 
f 139/7/112 142/9/114 126/1/99 
f 126/1/99 129/2/102 135/10/108 
f 139/7/112 126/1/99 135/10/108 
f 134/7/107 136/9/109 128/3/101 
f 128/3/101 127/4/100 141/10/113 
f 134/7/107 128/3/101 141/10/113 
f 132/5/105 134/7/107 141/10/113 
f 115/157/91 145/158/116 38/5/30 
f 38/5/30 35/5/28 115/157/91 
f 146/159/117 147/160/118 148/161/118 
f 148/161/118 149/162/118 150/163/119 
f 146/159/117 148/161/118 150/163/119 
f 146/159/117 150/163/119 115/157/91 
f 151/1/120 145/158/116 115/157/91 
f 147/160/121 146/164/121 122/165/121 
f 147/160/98 122/165/98 75/166/98 
f 147/160/98 75/166/98 77/59/98 
f 147/160/98 77/59/98 125/155/98 
f 148/161/122 147/160/122 72/53/122 
f 71/56/123 148/161/123 72/53/123 
f 149/162/124 148/161/124 71/76/124 
f 71/76/125 123/167/125 149/162/125 
f 28/168/126 152/169/126 115/157/126 
f 123/75/127 5/14/127 150/163/127 
f 150/163/128 149/162/128 123/75/128 
f 135/10/115 144/156/115 140/5/115 
f 151/2/31 143/2/31 43/1/31 
f 43/1/31 42/3/31 151/2/31 
f 145/11/98 151/3/98 42/4/98 
f 42/4/98 41/18/98 145/11/98 
f 145/158/31 41/18/31 38/5/31 
f 44/170/31 27/2/31 41/18/31 
f 27/1/129 44/19/129 28/16/129 
f 44/19/32 41/18/32 42/4/32 
f 28/16/130 44/19/130 117/117/130 
f 43/1/115 144/156/115 106/4/115 
f 144/156/131 131/6/131 130/171/131 
f 144/156/115 133/8/115 131/6/115 
f 144/156/115 135/10/115 133/8/115 
f 106/4/132 144/156/132 130/171/132 
f 106/4/133 130/171/133 153/1/133 
f 153/1/134 154/1/134 47/4/134 
f 47/4/134 106/2/134 153/1/134 
f 20/12/135 15/5/135 17/11/135 
f 17/11/134 16/6/134 13/7/134 
f 17/11/134 13/7/134 7/5/134 
f 17/11/134 7/5/134 21/17/134 
f 154/4/136 17/11/136 21/17/136 
f 21/17/137 47/3/137 154/4/137 
f 155/172/138 150/163/138 20/173/138 
f 154/4/139 155/172/139 20/173/139 
f 154/4/140 20/173/140 17/11/140 
f 151/1/118 156/1/118 144/2/118 
f 144/2/118 143/2/118 151/1/118 
f 140/5/141 144/156/141 156/174/141 
f 156/174/141 137/6/141 140/5/141 
f 153/1/118 130/1/118 155/175/118 
f 155/175/118 154/1/118 153/1/118 
f 132/5/142 155/172/142 130/1/142 
f 152/169/143 156/1/143 115/157/143 
f 115/157/144 156/1/144 151/1/144 
f 150/163/145 155/172/145 132/5/145 
f 150/163/146 132/5/146 141/10/146 
f 138/8/98 150/163/98 141/10/98 
f 137/6/98 150/163/98 138/8/98 
f 115/157/147 150/163/147 137/6/147 
f 156/1/148 115/157/148 137/6/148 
f 100/176/149 99/177/149 57/32/149 
f 57/32/149 59/36/149 100/176/149 
f 101/88/150 100/87/150 59/36/150 
f 59/36/150 60/38/150 101/88/150 
f 102/178/151 101/88/151 60/38/151 
f 60/38/151 63/42/151 102/178/151 
f 103/179/152 102/89/152 63/42/152 
f 63/42/153 64/43/153 103/179/153 
f 86/180/154 103/90/154 64/43/154 
f 64/43/155 68/48/155 86/180/155 
f 28/181/156 104/182/156 83/183/156 
f 152/169/157 157/157/157 156/1/157 
f 158/184/158 146/159/158 115/157/158 
f 152/169/159 158/184/159 157/157/159 
f 78/60/160 80/62/160 122/141/160 
f 78/60/161 122/141/161 146/159/161 
f 78/60/162 146/159/162 158/184/162 
f 158/184/163 152/169/163 28/181/163 
f 28/181/164 78/60/164 158/184/164 
f 99/86/165 98/85/165 54/28/165 
f 54/28/165 57/32/165 99/86/165 
f 98/85/166 97/84/166 50/24/166 
f 50/24/166 54/28/166 98/85/166 
f 97/84/167 96/83/167 51/25/167 
f 51/25/167 50/24/167 97/84/167 
f 96/83/168 95/82/168 84/185/168 
f 84/185/168 51/25/168 96/83/168 
f 95/82/169 94/186/169 104/187/169 
f 104/187/170 84/69/170 95/82/170 
f 83/68/171 104/94/171 94/81/171 
f 94/81/172 93/181/172 81/188/172 
f 83/68/173 94/81/173 81/188/173 
f 93/80/174 92/189/174 79/61/174 
f 79/61/175 81/66/175 93/80/175 
f 92/79/176 91/190/176 76/58/176 
f 76/58/176 79/61/176 92/79/176 
f 91/78/177 90/191/177 73/54/177 
f 73/54/177 76/58/177 91/78/177 
f 89/192/178 74/55/178 73/54/178 
f 73/54/178 90/77/178 89/192/178 
f 88/167/179 70/50/179 74/55/179 
f 74/55/179 89/76/179 88/167/179 
f 87/193/180 86/73/180 68/48/180 
f 68/48/181 66/46/181 87/193/181 
f 88/75/182 87/74/182 66/46/182 
f 66/46/182 70/50/182 88/75/182 
f 140/5/115 139/7/115 135/10/115 
# 306 faces

