# 3ds Max Wavefront OBJ Exporter v0.97b - (c)2007 guruware
# 创建的文件:23.06.2015 22:15:04

#
# object ChamferCyl001
#

v  -10.0227 10.1756 5.4864
v  -0.1634 10.1756 11.1787
v  5.5288 10.1756 9.6535
v  13.0057 8.3910 -0.2058
v  9.6959 10.1756 -5.8981
v  11.2211 10.1756 -0.2058
v  6.4211 8.3910 -11.6106
v  5.5289 10.1756 -10.0651
v  -0.1634 10.1756 -11.5904
v  -0.1634 8.3910 -13.3749
v  -5.8557 10.1756 -10.0651
v  -11.5682 8.3910 -6.7904
v  -10.0227 10.1756 -5.8981
v  -13.3325 8.3910 -0.2058
v  -11.5480 10.1756 -0.2058
v  -11.5682 8.3910 6.3787
v  -5.8557 10.1756 9.6535
v  -0.1634 8.3910 12.9633
v  6.4211 8.3910 11.1990
v  9.6959 10.1756 5.4865
v  11.2414 8.3910 6.3787
v  13.0057 1.9602 -0.2058
v  11.2414 8.3910 -6.7904
v  6.4211 1.9602 -11.6106
v  -0.1634 1.9602 -13.3749
v  -6.7480 1.9602 -11.6106
v  -6.7480 8.3910 -11.6106
v  -13.3325 1.9602 -0.2058
v  -11.5682 1.9602 6.3787
v  -6.7480 3.1698 11.1989
v  -6.7812 6.8495 11.1657
v  -8.3859 4.5203 9.5610
v  -0.1634 2.9329 12.9633
v  -0.2205 6.6127 12.9480
v  -2.0218 4.6106 12.4653
v  5.4251 2.9329 11.4658
v  4.3424 3.9904 11.7560
v  4.3424 2.9329 11.7560
v  8.1584 4.2422 9.4617
v  7.7541 6.6127 9.8660
v  6.4211 6.6127 11.1990
v  9.6959 0.1756 -5.8981
v  11.2414 1.9602 -6.7904
v  -0.1634 0.1756 -11.5904
v  -5.8557 0.1756 -10.0651
v  -11.5682 1.9602 -6.7904
v  -10.0227 0.1756 -5.8981
v  -11.5480 0.1756 -0.2058
v  -5.8557 0.1756 9.6535
v  -6.7480 1.9602 11.1989
v  -0.1634 1.9602 12.9633
v  -0.1634 0.1756 11.1787
v  6.4211 1.9602 11.1990
v  9.6959 0.1756 5.4865
v  11.2414 1.9602 6.3787
v  11.2211 0.1756 -0.2058
v  -10.0227 0.1756 5.4864
v  -0.1634 6.6127 12.9633
v  -0.0035 2.9329 12.9204
v  1.7943 4.6074 12.4387
v  6.6027 2.9329 11.0173
v  6.4211 2.9329 11.1990
v  4.3424 4.5236 11.7560
v  4.3423 6.6127 28.7874
v  4.3424 6.6127 11.7560
v  8.1584 6.6127 28.7874
v  8.1584 6.0732 9.4617
v  8.1584 6.6127 9.4617
v  4.3423 2.9329 28.7874
v  8.1584 2.9329 28.7874
v  4.3424 2.9329 -1.2126
v  8.1584 2.9329 9.4617
v  8.1584 2.9329 -1.2126
v  4.3424 6.6127 -1.2126
v  8.1584 6.6127 -1.2126
v  -6.7480 6.8495 11.1989
v  -6.1975 3.1698 11.3464
v  -4.5699 4.7928 11.7826
v  -2.0218 6.6127 28.7874
v  1.7943 6.6127 28.7874
v  1.7943 2.9329 28.7874
v  -2.0218 2.9329 28.7874
v  -2.0218 6.6127 -1.2126
v  -2.0218 2.9329 -1.2126
v  -2.0218 2.9329 12.4653
v  1.7943 2.9329 -1.2126
v  1.7943 6.6127 -1.2126
v  1.7943 6.6127 12.4387
v  -4.5699 6.8495 11.7826
v  -6.7480 8.3910 11.1989
v  -8.3859 3.1698 9.5610
v  -8.3859 6.8495 28.5506
v  -4.5699 6.8495 28.5506
v  -4.5699 3.1698 28.5506
v  -8.3859 3.1698 28.5506
v  -4.5699 3.1698 11.7826
v  -8.3859 6.8495 -1.4494
v  -8.3859 3.1698 -1.4494
v  -4.5699 3.1698 -1.4494
v  -4.5699 6.8495 -1.4494
v  -8.3859 6.8495 9.5610
v  -2.0218 6.6127 12.4653
v  5.9376 6.6127 11.3285
v  5.5289 0.1756 -10.0651
v  5.5288 0.1756 9.6535
v  1.7943 2.9329 12.4387
# 106 vertices

vn 0.0000 1.0000 -0.0000
vn 0.7071 0.7071 0.0000
vn 0.6124 0.7071 -0.3536
vn 0.3536 0.7071 -0.6124
vn -0.0000 0.7071 -0.7071
vn 0.0000 0.7071 -0.7071
vn -0.3536 0.7071 -0.6124
vn -0.6124 0.7071 -0.3536
vn -0.7071 0.7071 -0.0000
vn -0.6124 0.7071 0.3536
vn -0.3536 0.7071 0.6124
vn -0.0000 0.7071 0.7071
vn 0.3536 0.7071 0.6124
vn 0.6124 0.7071 0.3536
vn 1.0000 0.0000 0.0000
vn 0.8660 0.0000 -0.5000
vn 0.5000 0.0000 -0.8660
vn -0.0000 0.0000 -1.0000
vn -0.5000 0.0000 -0.8660
vn -0.8660 0.0000 -0.5000
vn -1.0000 0.0000 -0.0000
vn -0.8660 -0.0000 0.5000
vn -0.5000 0.0000 0.8660
vn -0.7071 -0.0000 0.7071
vn -0.7071 0.0000 0.7071
vn -0.0000 -0.0000 1.0000
vn -0.2588 0.0000 0.9659
vn -0.2588 -0.0000 0.9659
vn 0.2588 -0.0000 0.9659
vn 0.7071 -0.0000 0.7071
vn 0.5000 -0.0000 0.8660
vn 0.8660 -0.0000 0.5000
vn 0.7071 -0.7071 0.0000
vn 0.6124 -0.7071 -0.3536
vn 0.3536 -0.7071 -0.6124
vn -0.0000 -0.7071 -0.7071
vn 0.0000 -0.7071 -0.7071
vn -0.3536 -0.7071 -0.6124
vn -0.6124 -0.7071 -0.3536
vn -0.7071 -0.7071 -0.0000
vn -0.6124 -0.7071 0.3536
vn -0.3536 -0.7071 0.6124
vn -0.0000 -0.7071 0.7071
vn 0.3536 -0.7071 0.6124
vn 0.6124 -0.7071 0.3536
vn 0.0000 -1.0000 -0.0000
vn 0.0000 0.0000 1.0000
vn 0.2588 0.0000 0.9659
vn 0.5000 0.0000 0.8660
vn -1.0000 -0.0000 -0.0000
vn -0.7682 0.6402 -0.0000
vn 0.5547 0.8321 0.0000
vn 0.5547 -0.8321 0.0000
vn 1.0000 -0.0000 0.0000
vn 0.0000 0.0000 -1.0000
vn -0.5000 -0.0000 0.8660
vn -0.0000 0.0000 1.0000
vn 0.7071 0.0000 0.7071
vn 0.8660 0.0000 0.5000
vn -0.7682 -0.6402 -0.0000
vn -0.8944 0.4472 -0.0000
vn -0.8944 -0.4472 -0.0000
# 62 vertex normals

vt 0.1257 0.2839 0.0000
vt 0.5000 0.0678 0.0000
vt 0.7161 0.1257 0.0000
vt 1.0000 0.5000 0.0000
vt 0.8743 0.7161 0.0000
vt 0.9322 0.5000 0.0000
vt 0.7500 0.9330 0.0000
vt 0.7161 0.8743 0.0000
vt 0.5000 0.9322 0.0000
vt 0.5000 1.0000 0.0000
vt 0.2839 0.8743 0.0000
vt 0.0670 0.7500 0.0000
vt 0.1257 0.7161 0.0000
vt 0.0000 0.5000 0.0000
vt 0.0678 0.5000 0.0000
vt 0.0670 0.2500 0.0000
vt 0.2839 0.1257 0.0000
vt 0.5000 0.0000 0.0000
vt 0.7500 0.0670 0.0000
vt 0.8743 0.2839 0.0000
vt 0.9330 0.2500 0.0000
vt 0.0000 0.0000 0.0000
vt 0.0833 1.0000 0.0000
vt 0.0000 1.0000 0.0000
vt 0.1667 0.0000 0.0000
vt 0.1667 1.0000 0.0000
vt 0.2500 0.0000 0.0000
vt 0.2500 1.0000 0.0000
vt 0.3333 0.0000 0.0000
vt 0.3333 1.0000 0.0000
vt 0.4167 1.0000 0.0000
vt 0.5833 0.0000 0.0000
vt 0.5833 1.0000 0.0000
vt 0.6667 0.1881 0.0000
vt 0.6661 0.7603 0.0000
vt 0.6383 0.3981 0.0000
vt 0.7500 0.1513 0.0000
vt 0.7493 0.7235 0.0000
vt 0.7265 0.4121 0.0000
vt 0.8207 0.1513 0.0000
vt 0.8070 0.3157 0.0000
vt 0.8070 0.1513 0.0000
vt 0.8634 0.3549 0.0000
vt 0.8564 0.7235 0.0000
vt 0.8333 0.7235 0.0000
vt 0.9167 1.0000 0.0000
vt 1.0000 0.0000 0.0000
vt 1.0000 1.0000 0.0000
vt 0.9330 0.7500 0.0000
vt 0.2500 0.9330 0.0000
vt 0.2500 0.0670 0.0000
vt 0.7500 0.7235 0.0000
vt 0.7520 0.1513 0.0000
vt 0.7748 0.4116 0.0000
vt 0.8333 0.0000 0.0000
vt 0.8365 0.1513 0.0000
vt 0.8333 0.1513 0.0000
vt 0.4323 0.4323 0.0000
vt 0.4323 1.0000 0.0000
vt 0.5677 1.0000 0.0000
vt 0.6442 0.8534 0.0000
vt 0.6442 1.0000 0.0000
vt 0.0000 -0.0000 0.0000
vt 1.0000 -0.0000 0.0000
vt 0.4226 0.7163 0.0000
vt 0.3558 -0.0000 0.0000
vt 0.4077 0.4077 0.0000
vt 0.6442 0.3558 0.0000
vt 0.6442 0.0000 0.0000
vt 0.4323 0.2874 0.0000
vt 0.4323 0.0000 0.0000
vt 0.6667 0.7603 0.0000
vt 0.6736 0.1881 0.0000
vt 0.6942 0.4405 0.0000
vt 0.5275 0.5130 0.0000
vt 0.5450 0.4550 0.0000
vt 0.4725 0.5130 0.0000
vt 0.4711 0.4711 0.0000
vt 0.4559 0.4559 0.0000
vt 0.4559 1.0000 0.0000
vt 0.5450 0.0000 0.0000
vt 0.5280 0.5280 0.0000
vt 0.6942 0.7603 0.0000
vt 0.6667 1.0000 0.0000
vt 0.6383 0.1881 0.0000
vt 0.6667 0.0000 0.0000
vt 0.5589 -0.0000 0.0000
vt 0.5784 0.5708 0.0000
vt 0.5589 0.4411 0.0000
vt 0.4411 0.0000 0.0000
vt 0.3670 0.3670 0.0000
vt 0.3670 1.0000 0.0000
vt 0.5589 1.0000 0.0000
vt 0.6330 1.0000 0.0000
vt 0.5795 0.5795 0.0000
vt 0.0833 0.0000 0.0000
vt 0.4167 0.0000 0.0000
vt 0.6383 0.7603 0.0000
vt 0.7265 0.7235 0.0000
vt 0.7265 0.1513 0.0000
vt 0.8070 0.3986 0.0000
vt 0.8272 0.7235 0.0000
vt 0.8070 0.7235 0.0000
vt 0.8634 0.1513 0.0000
vt 0.8634 0.6396 0.0000
vt 0.8634 0.7235 0.0000
vt 0.9167 0.0000 0.0000
vt 0.7748 0.1513 0.0000
vt 0.7748 0.7235 0.0000
vt 0.8333 1.0000 0.0000
vt 0.6307 0.1060 0.0000
vt 0.5863 0.4553 0.0000
vt 0.5820 0.5820 0.0000
vt 0.4137 0.4553 0.0000
vt -0.0000 1.0000 0.0000
vt 0.7500 1.0000 0.0000
vt 0.7500 0.0000 0.0000
vt 0.6942 0.1881 0.0000
vt 0.5441 1.0000 0.0000
vt 0.5450 1.0000 0.0000
vt 0.4550 0.0000 0.0000
vt 0.4559 0.0000 0.0000
vt 0.4559 -0.0000 0.0000
vt 0.5589 0.0000 0.0000
vt 0.4216 0.5708 0.0000
vt 0.4265 0.4265 0.0000
vt 0.3670 0.0000 0.0000
# 127 texture coords

g ChamferCyl001
s 4
f 1/1/1 2/2/1 3/3/1 
s 8
f 4/4/2 5/5/3 6/6/2 
f 5/5/3 7/7/4 8/8/4 
f 7/7/4 9/9/5 8/8/4 
f 10/10/6 11/11/7 9/9/5 
f 11/11/7 12/12/8 13/13/8 
f 13/13/8 14/14/9 15/15/9 
f 15/15/9 16/16/10 1/1/10 
f 16/16/10 17/17/11 1/1/10 
f 17/17/11 18/18/12 2/2/12 
f 2/2/12 19/19/13 3/3/13 
f 19/19/13 20/20/14 3/3/13 
f 21/21/14 6/6/2 20/20/14 
s 16
f 22/22/15 23/23/16 4/24/15 
f 23/23/16 24/25/17 7/26/17 
f 7/26/17 25/27/18 10/28/18 
f 10/28/18 26/29/19 27/30/19 
f 26/29/19 12/31/20 27/30/19 
f 12/31/20 28/18/21 14/10/21 
f 14/10/21 29/32/22 16/33/22 
f 30/34/23 31/35/24 32/36/25 
f 33/37/26 34/38/27 35/39/28 
f 36/40/29 37/41/29 38/42/29 
f 39/43/30 40/44/30 41/45/31 
f 21/46/32 22/47/15 4/48/15 
s 8
f 22/4/33 42/5/34 43/49/34 
f 42/5/34 24/7/35 43/49/34 
f 24/7/35 44/9/36 25/10/37 
f 25/10/37 45/11/38 26/50/38 
f 45/11/38 46/12/39 26/50/38 
f 47/13/39 28/14/40 46/12/39 
f 48/15/40 29/16/41 28/14/40 
f 29/16/41 49/17/42 50/51/42 
f 49/17/42 51/18/43 50/51/42 
f 52/2/43 53/19/44 51/18/43 
f 53/19/44 54/20/45 55/21/45 
f 55/21/45 56/6/33 22/4/33 
s 4
f 57/1/46 52/2/46 49/17/46 
s 16
f 58/52/47 59/53/48 60/54/48 
f 53/55/49 61/56/30 62/57/49 
s 1
f 63/58/50 64/48/50 65/59/51 
s 4
f 66/22/1 65/60/1 64/24/1 
s 1
f 66/24/15 67/61/15 68/62/52 
s 2
f 66/47/26 69/24/26 70/63/26 
s 4
f 70/64/46 38/59/46 36/65/46 
s 1
f 71/24/46 72/66/53 61/67/46 
s 2
f 73/47/15 39/68/15 72/69/54 
s 1
f 74/48/1 68/69/52 75/47/1 
s 2
f 37/70/21 71/22/50 38/71/21 
s 4
f 71/48/55 75/22/55 73/64/55 
s 16
f 38/42/29 53/55/49 36/40/29 
f 76/72/56 77/73/27 78/74/28 
s 1
f 58/75/1 79/24/1 80/22/1 
s 2
f 60/76/15 80/24/15 81/22/15 
s 1
f 81/47/46 33/77/46 59/78/46 
s 2
f 35/79/50 82/47/50 79/48/50 
s 4
f 82/24/57 80/47/57 79/48/57 
s 1
f 35/79/50 83/24/50 84/22/50 
s 4
f 85/80/46 59/78/46 33/77/46 
s 2
f 60/76/15 86/47/15 87/48/15 
s 8
f 87/22/55 84/48/55 83/24/55 
s 4
f 88/81/1 34/82/1 58/75/1 
s 16
f 89/83/28 90/84/56 76/72/56 
f 91/85/25 50/86/23 30/34/23 
s 1
f 92/24/1 89/87/1 76/88/1 
s 2
f 78/89/15 93/24/15 94/22/15 
s 1
f 95/48/46 96/90/46 94/47/46 
s 2
f 32/91/50 95/47/50 92/48/50 
s 4
f 95/24/26 93/64/26 92/48/26 
s 1
f 32/91/50 97/24/50 98/22/50 
s 4
f 99/22/46 91/92/46 98/24/46 
s 2
f 78/89/15 100/48/15 89/93/15 
s 8
f 100/63/55 98/48/55 97/24/55 
s 4
f 100/64/1 101/94/1 31/95/1 
f 13/13/1 9/9/1 11/11/1 
f 15/15/1 9/9/1 13/13/1 
f 1/1/1 9/9/1 15/15/1 
f 1/1/1 8/8/1 9/9/1 
f 1/1/1 5/5/1 8/8/1 
f 1/1/1 6/6/1 5/5/1 
f 1/1/1 20/20/1 6/6/1 
f 1/1/1 3/3/1 20/20/1 
f 2/2/1 1/1/1 17/17/1 
s 8
f 5/5/3 4/4/2 23/49/3 
f 7/7/4 5/5/3 23/49/3 
f 9/9/5 7/7/4 10/10/6 
f 11/11/7 10/10/6 27/50/7 
f 12/12/8 11/11/7 27/50/7 
f 14/14/9 13/13/8 12/12/8 
f 16/16/10 15/15/9 14/14/9 
f 17/17/11 16/16/10 90/51/11 
f 18/18/12 17/17/11 90/51/11 
f 19/19/13 2/2/12 18/18/12 
f 20/20/14 19/19/13 21/21/14 
f 6/6/2 21/21/14 4/4/2 
s 16
f 23/23/16 22/22/15 43/96/16 
f 24/25/17 23/23/16 43/96/16 
f 25/27/18 7/26/17 24/25/17 
f 26/29/19 10/28/18 25/27/18 
f 12/31/20 26/29/19 46/97/20 
f 28/18/21 12/31/20 46/97/20 
f 29/32/22 14/10/21 28/18/21 
f 32/36/25 31/35/24 101/98/25 
f 30/34/23 32/36/25 91/85/25 
f 31/35/24 30/34/23 76/72/56 
f 35/39/28 34/38/27 102/99/28 
f 33/37/26 35/39/28 85/100/28 
f 34/38/27 33/37/26 58/52/47 
f 63/101/29 103/102/29 65/103/48 
f 41/45/31 36/40/29 62/57/49 
f 103/102/29 36/40/29 41/45/31 
f 63/101/29 36/40/29 103/102/29 
f 37/41/29 36/40/29 63/101/29 
f 39/43/30 61/56/30 72/104/30 
f 40/44/30 67/105/58 68/106/30 
f 61/56/30 41/45/31 62/57/49 
f 39/43/30 41/45/31 61/56/30 
f 40/44/30 39/43/30 67/105/58 
f 22/47/15 21/46/32 55/107/59 
s 8
f 42/5/34 22/4/33 56/6/33 
f 24/7/35 42/5/34 104/8/35 
f 44/9/36 24/7/35 104/8/35 
f 45/11/38 25/10/37 44/9/36 
f 46/12/39 45/11/38 47/13/39 
f 28/14/40 47/13/39 48/15/40 
f 29/16/41 48/15/40 57/1/41 
f 49/17/42 29/16/41 57/1/41 
f 51/18/43 49/17/42 52/2/43 
f 53/19/44 52/2/43 105/3/44 
f 54/20/45 53/19/44 105/3/44 
f 56/6/33 55/21/45 54/20/45 
s 4
f 44/9/46 47/13/46 45/11/46 
f 44/9/46 48/15/46 47/13/46 
f 44/9/46 57/1/46 48/15/46 
f 104/8/46 57/1/46 44/9/46 
f 42/5/46 57/1/46 104/8/46 
f 56/6/46 57/1/46 42/5/46 
f 54/20/46 57/1/46 56/6/46 
f 105/3/46 57/1/46 54/20/46 
f 52/2/46 57/1/46 105/3/46 
s 16
f 60/54/48 59/53/48 106/108/48 
f 58/52/47 60/54/48 88/109/29 
f 59/53/48 58/52/47 33/37/26 
f 40/44/30 19/110/49 41/45/31 
f 40/44/30 21/46/32 19/110/49 
f 68/106/30 21/46/32 40/44/30 
f 68/106/30 55/107/59 21/46/32 
f 67/105/58 55/107/59 68/106/30 
f 39/43/30 55/107/59 67/105/58 
f 72/104/30 55/107/59 39/43/30 
f 72/104/30 53/55/49 55/107/59 
f 61/56/30 53/55/49 72/104/30 
s 1
f 69/47/50 37/70/50 38/71/60 
f 64/48/50 37/70/50 69/47/50 
f 64/48/50 63/58/50 37/70/50 
s 4
f 40/111/1 66/22/1 68/69/1 
f 41/112/1 66/22/1 40/111/1 
f 103/113/1 66/22/1 41/112/1 
f 65/60/1 66/22/1 103/113/1 
s 1
f 39/68/15 70/22/15 72/69/53 
f 39/68/15 66/24/15 70/22/15 
f 67/61/15 66/24/15 39/68/15 
s 2
f 69/24/26 66/47/26 64/48/26 
s 4
f 70/64/46 61/67/46 72/66/46 
f 70/64/46 62/114/46 61/67/46 
f 70/64/46 36/65/46 62/114/46 
f 38/59/46 70/64/46 69/48/46 
s 1
f 71/24/46 36/65/46 38/59/60 
f 71/24/46 62/114/46 36/65/46 
f 71/24/46 61/67/46 62/114/46 
f 72/66/53 71/24/46 73/63/46 
s 2
f 67/61/15 75/48/15 68/62/15 
f 67/61/15 73/47/15 75/48/15 
f 39/68/15 73/47/15 67/61/15 
s 1
f 103/113/1 74/48/1 65/60/51 
f 41/112/1 74/48/1 103/113/1 
f 40/111/1 74/48/1 41/112/1 
f 68/69/52 74/48/1 40/111/1 
s 2
f 74/24/50 63/58/50 65/59/50 
f 71/22/50 63/58/50 74/24/50 
f 71/22/50 37/70/21 63/58/50 
s 4
f 75/22/55 71/48/55 74/115/55 
s 16
f 88/109/29 18/116/57 58/52/47 
f 88/109/29 19/110/49 18/116/57 
f 51/117/57 59/53/48 33/37/26 
f 53/55/49 59/53/48 51/117/57 
f 53/55/49 106/108/48 59/53/48 
f 36/40/29 53/55/49 62/57/49 
f 19/110/49 103/102/29 41/45/31 
f 19/110/49 65/103/48 103/102/29 
f 88/109/29 65/103/48 19/110/49 
f 60/54/48 65/103/48 88/109/29 
f 60/54/48 63/101/29 65/103/48 
f 106/108/48 63/101/29 60/54/48 
f 106/108/48 37/41/29 63/101/29 
f 106/108/48 38/42/29 37/41/29 
f 53/55/49 38/42/29 106/108/48 
f 78/74/28 77/73/27 96/118/27 
f 76/72/56 78/74/28 89/83/28 
f 77/73/27 76/72/56 30/34/23 
s 1
f 79/24/1 34/82/1 102/119/51 
f 58/75/1 80/22/1 88/81/1 
f 79/24/1 58/75/1 34/82/1 
s 2
f 60/76/15 81/22/15 106/81/15 
f 80/24/15 60/76/15 88/120/15 
s 1
f 33/77/46 82/48/46 85/80/60 
f 81/47/46 59/78/46 106/121/46 
f 33/77/46 81/47/46 82/48/46 
s 2
f 35/79/50 79/48/50 102/80/50 
f 82/47/50 35/79/50 85/122/50 
s 4
f 80/47/57 82/24/57 81/22/57 
s 1
f 35/79/50 84/22/50 85/123/60 
f 83/24/50 35/79/50 102/80/51 
s 4
f 86/22/46 85/80/46 84/24/46 
f 106/121/46 85/80/46 86/22/46 
f 59/78/46 85/80/46 106/121/46 
s 2
f 60/76/15 87/48/15 88/120/15 
f 86/47/15 60/76/15 106/81/15 
s 8
f 84/48/55 87/22/55 86/47/55 
s 4
f 102/119/1 87/47/1 83/48/1 
f 102/119/1 88/81/1 87/47/1 
f 34/82/1 88/81/1 102/119/1 
s 16
f 50/86/23 77/73/27 30/34/23 
f 51/117/57 77/73/27 50/86/23 
f 51/117/57 96/118/27 77/73/27 
f 18/116/57 34/38/27 58/52/47 
f 90/84/56 34/38/27 18/116/57 
f 90/84/56 102/99/28 34/38/27 
f 85/100/28 51/117/57 33/37/26 
f 85/100/28 96/118/27 51/117/57 
f 35/39/28 96/118/27 85/100/28 
f 35/39/28 78/74/28 96/118/27 
f 102/99/28 78/74/28 35/39/28 
f 102/99/28 89/83/28 78/74/28 
f 90/84/56 89/83/28 102/99/28 
f 90/84/56 31/35/24 76/72/56 
f 16/33/22 31/35/24 90/84/56 
f 16/33/22 101/98/25 31/35/24 
f 29/32/22 101/98/25 16/33/22 
f 29/32/22 32/36/25 101/98/25 
f 29/32/22 91/85/25 32/36/25 
f 50/86/23 91/85/25 29/32/22 
s 1
f 92/24/1 31/95/1 101/94/61 
f 92/24/1 76/88/1 31/95/1 
f 89/87/1 92/24/1 93/63/1 
s 2
f 78/89/15 94/22/15 96/124/15 
f 93/24/15 78/89/15 89/93/15 
s 1
f 30/125/46 95/48/46 91/92/62 
f 77/126/46 95/48/46 30/125/46 
f 96/90/46 95/48/46 77/126/46 
s 2
f 32/91/50 92/48/50 101/92/50 
f 95/47/50 32/91/50 91/127/21 
s 4
f 93/64/26 95/24/26 94/22/57 
s 1
f 32/91/50 98/22/50 91/127/62 
f 97/24/50 32/91/50 101/92/61 
s 4
f 77/126/46 99/22/46 96/90/46 
f 30/125/46 99/22/46 77/126/46 
f 91/92/46 99/22/46 30/125/46 
s 2
f 99/47/15 78/89/15 96/124/15 
f 100/48/15 78/89/15 99/47/15 
s 8
f 98/48/55 100/63/55 99/47/55 
s 4
f 100/64/1 76/88/1 89/87/1 
f 100/64/1 31/95/1 76/88/1 
f 101/94/1 100/64/1 97/48/1 
# 264 faces

