# 3ds Max Wavefront OBJ Exporter v0.97b - (c)2007 guruware
# 创建的文件:23.06.2015 22:06:45

#
# object Box003
#

v  -31.2326 10.2128 10.1750
v  -31.2326 5.4495 10.1750
v  31.7674 5.4495 10.1750
v  31.7674 10.2128 10.1750
v  31.7674 5.4495 -4.4590
v  31.7674 10.2128 -8.5558
v  31.7674 5.4495 -8.5558
v  -31.2326 5.4495 -8.5558
v  -31.2326 10.2128 -8.5558
v  -31.2326 5.4495 6.5660
v  -53.4541 0.0000 10.4547
v  -53.4541 0.0000 -8.6184
v  55.5352 0.0000 -8.6184
v  55.5352 0.0000 10.4547
v  55.5352 5.4495 10.4547
v  -53.4541 5.4495 10.4547
v  55.5352 5.4495 -8.6184
v  -53.4541 5.4495 -8.6184
# 18 vertices

vn 0.0000 0.0000 1.0000
vn 1.0000 -0.0000 -0.0000
vn 1.0000 0.0000 -0.0000
vn 1.0000 -0.0000 0.0000
vn 1.0000 0.0000 0.0000
vn 0.0000 0.0000 -1.0000
vn 0.0000 1.0000 -0.0000
vn -1.0000 0.0000 -0.0000
vn 0.0000 -1.0000 -0.0000
vn 0.0000 1.0000 0.0000
vn -0.0000 1.0000 -0.0000
vn -0.0000 1.0000 0.0000
# 12 vertex normals

vt -0.4961 -1.1327 2.1820
vt -0.4961 -1.1327 0.6130
vt 1.4484 -1.1327 0.6130
vt 1.4484 -1.1327 2.1820
vt 1.4484 1.4484 0.6130
vt 1.4484 2.1710 2.1820
vt 1.4484 2.1710 0.6130
vt -0.4961 2.1710 0.6130
vt -0.4961 2.1710 2.1820
vt -0.4961 -0.4961 0.6130
vt -1.1820 -1.1820 -1.1820
vt -1.1820 2.1820 -1.1820
vt 2.1820 2.1820 -1.1820
vt 2.1820 -1.1820 -1.1820
vt 2.1820 -1.1820 0.6130
vt -1.1820 -1.1820 0.6130
vt 2.1820 2.1820 0.6130
vt -1.1820 2.1820 0.6130
# 18 texture coords

g Box003
s 1
f 1/1/1 2/2/1 3/3/1 
f 3/3/1 4/4/1 1/1/1 
s 2
f 4/4/2 3/3/3 5/5/4 
f 6/6/4 4/4/2 5/5/4 
f 6/6/4 5/5/4 7/7/5 
s 4
f 6/6/6 7/7/6 8/8/6 
f 8/8/6 9/9/6 6/6/6 
s 32
f 6/6/7 9/9/7 1/1/7 
f 1/1/7 4/4/7 6/6/7 
s 8
f 9/9/8 8/8/8 10/10/8 
f 1/1/8 9/9/8 10/10/8 
f 2/2/8 1/1/8 10/10/8 
s 2
f 11/11/9 12/12/9 13/13/9 
f 13/13/9 14/14/9 11/11/9 
s 8
f 11/11/1 14/14/1 15/15/1 
f 15/15/1 16/16/1 11/11/1 
s 16
f 14/14/3 13/13/3 17/17/3 
f 17/17/3 15/15/3 14/14/3 
s 32
f 13/13/6 12/12/6 18/18/6 
f 18/18/6 17/17/6 13/13/6 
s 64
f 12/12/8 11/11/8 16/16/8 
f 16/16/8 18/18/8 12/12/8 
s 128
f 2/2/7 10/10/10 16/16/7 
f 3/3/11 2/2/7 16/16/7 
f 3/3/11 16/16/7 15/15/7 
f 3/3/11 15/15/7 17/17/12 
f 3/3/11 17/17/12 5/5/11 
f 7/7/12 5/5/11 17/17/12 
f 7/7/12 17/17/12 18/18/10 
f 8/8/7 7/7/12 18/18/10 
f 8/8/7 18/18/10 16/16/7 
f 8/8/7 16/16/7 10/10/10 
# 32 faces

